<svg width="40" height="40" viewBox="0 0 40 40" fill="none" xmlns="http://www.w3.org/2000/svg">
<path d="M21.4291 1.42863C31.6856 1.42879 40.0003 9.74333 40.0004 19.9999C40.0004 30.2565 31.6857 38.571 21.4291 38.5712C14.1316 38.5712 7.81779 34.362 4.78162 28.2392C5.53195 28.4539 6.32366 28.5712 7.14294 28.5712C9.26985 28.5712 11.214 27.7942 12.7123 26.5116C14.6964 29.1634 17.8624 30.8798 21.4291 30.8798C27.4377 30.8796 32.309 26.0085 32.309 19.9999C32.3089 13.9913 27.4376 9.1202 21.4291 9.12004C17.8627 9.12004 14.6965 10.8359 12.7123 13.4872C11.2141 12.2049 9.26959 11.4286 7.14294 11.4286C6.32367 11.4287 5.53194 11.546 4.78162 11.7607C7.81781 5.63793 14.1316 1.42863 21.4291 1.42863Z" fill="white"/>
<circle cx="7.14304" cy="20" r="5.71429" fill="white"/>
</svg>
