<svg width="20" height="20" viewBox="0 0 20 20" fill="none" xmlns="http://www.w3.org/2000/svg">
<circle cx="0.804598" cy="0.804598" r="0.804598" transform="matrix(-1 0 0 1 10.8039 3.33334)" fill="#51516D"/>
<circle cx="0.804598" cy="0.804598" r="0.804598" transform="matrix(-1 0 0 1 10.8039 5.28754)" fill="#51516D"/>
<circle cx="0.804598" cy="0.804598" r="0.804598" transform="matrix(-1 0 0 1 12.7587 5.28754)" fill="#51516D"/>
<circle cx="0.804598" cy="0.804598" r="0.804598" transform="matrix(-1 0 0 1 12.7587 7.24152)" fill="#51516D"/>
<circle cx="0.804598" cy="0.804598" r="0.804598" transform="matrix(-1 0 0 1 14.7126 7.24152)" fill="#51516D"/>
<circle cx="0.804598" cy="0.804598" r="0.804598" transform="matrix(-1 0 0 1 14.7126 9.1955)" fill="#51516D"/>
<circle cx="0.804598" cy="0.804598" r="0.804598" transform="matrix(-1 0 0 1 16.6666 9.1955)" fill="#51516D"/>
<circle cx="0.804598" cy="0.804598" r="0.804598" transform="matrix(-1 0 0 1 12.7587 9.1955)" fill="#51516D"/>
<circle cx="0.804598" cy="0.804598" r="0.804598" transform="matrix(-1 0 0 1 10.8039 9.1955)" fill="#51516D"/>
<circle cx="0.804598" cy="0.804598" r="0.804598" transform="matrix(-1 0 0 1 8.84991 9.1955)" fill="#51516D"/>
<circle cx="0.804598" cy="0.804598" r="0.804598" transform="matrix(-1 0 0 1 6.89679 9.1955)" fill="#51516D"/>
<circle cx="0.804598" cy="0.804598" r="0.804598" transform="matrix(-1 0 0 1 4.94281 9.1955)" fill="#51516D"/>
<circle cx="0.804598" cy="0.804598" r="0.804598" transform="matrix(-1 0 0 1 14.7126 11.1495)" fill="#51516D"/>
<circle cx="0.804598" cy="0.804598" r="0.804598" transform="matrix(-1 0 0 1 12.7587 11.1495)" fill="#51516D"/>
<circle cx="0.804598" cy="0.804598" r="0.804598" transform="matrix(-1 0 0 1 12.7587 13.1036)" fill="#51516D"/>
<circle cx="0.804598" cy="0.804598" r="0.804598" transform="matrix(-1 0 0 1 10.8039 13.1036)" fill="#51516D"/>
<circle cx="0.804598" cy="0.804598" r="0.804598" transform="matrix(-1 0 0 1 10.8039 15.0576)" fill="#51516D"/>
</svg>
