<svg width="24" height="24" viewBox="0 0 24 24" fill="none" xmlns="http://www.w3.org/2000/svg">
<circle cx="9" cy="5" r="1" fill="#51516D"/>
<circle cx="9" cy="19" r="1" fill="#51516D"/>
<circle cx="5" cy="15" r="1" transform="rotate(-90 5 15)" fill="#51516D"/>
<circle cx="19" cy="15" r="1" transform="rotate(-90 19 15)" fill="#51516D"/>
<circle cx="12" cy="5" r="1" fill="#51516D"/>
<circle cx="12" cy="19" r="1" fill="#51516D"/>
<circle cx="5" cy="12" r="1" transform="rotate(-90 5 12)" fill="#51516D"/>
<circle cx="19" cy="12" r="1" transform="rotate(-90 19 12)" fill="#51516D"/>
<circle cx="15" cy="5" r="1" fill="#51516D"/>
<circle cx="15" cy="19" r="1" fill="#51516D"/>
<circle cx="5" cy="9" r="1" transform="rotate(-90 5 9)" fill="#51516D"/>
<circle cx="19" cy="9" r="1" transform="rotate(-90 19 9)" fill="#51516D"/>
<ellipse cx="12" cy="12" rx="3" ry="3" transform="rotate(-90 12 12)" fill="#3C3C54"/>
</svg>
