<svg width="131" height="36" viewBox="0 0 131 36" fill="none" xmlns="http://www.w3.org/2000/svg">
<path d="M125.481 7.39475L125.853 5.31531H107.014L106.646 7.39475H78.2237L78.6551 4.98642H71.7413L71.317 7.39475H50.1407L50.565 4.98642H43.6548L43.2304 7.39475H38.9053L39.3332 4.98642H30.8811C30.1952 3.62007 29.1744 2.44967 27.914 1.58435C26.4036 0.548588 24.6141 -0.00391351 22.7826 2.08672e-05C21.6121 2.08672e-05 20.4344 0.229891 19.3523 0.671948C19.2638 0.590609 19.1684 0.509271 19.0658 0.438541C18.648 0.15299 18.1538 0.000154872 17.6477 2.08672e-05C16.8166 2.08672e-05 16.0421 0.406713 15.5718 1.09279C15.3615 1.39988 15.2222 1.74996 15.1641 2.1176C15.106 2.48524 15.1305 2.86121 15.2358 3.2182C15.0908 3.27478 14.9458 3.34197 14.8115 3.42331L3.15883 10.4326C2.51519 10.818 1.77254 11.5218 1.34816 12.1371L0.467583 13.4244C0.268705 13.713 0.129099 14.0383 0.0568586 14.3813C-0.0153819 14.7243 -0.0188195 15.0782 0.0467449 15.4225C0.110296 15.7672 0.241448 16.0959 0.432641 16.3897C0.623834 16.6835 0.871285 16.9365 1.16073 17.1342L7.59354 21.5441C8.04267 21.8518 8.60497 22.0428 9.19909 22.0958C9.10986 22.4267 9.09822 22.7738 9.16508 23.1099C9.23194 23.446 9.3755 23.7622 9.58457 24.0338C9.42684 24.4573 9.38771 24.9158 9.4714 25.36C9.53071 25.685 9.65412 25.995 9.83445 26.2719C10.0148 26.5487 10.2484 26.7869 10.5217 26.9726C10.9395 27.2581 11.4338 27.411 11.9398 27.4111C12.5552 27.4111 13.1387 27.1848 13.5914 26.7922C13.7965 26.8523 14.0087 26.8842 14.2244 26.8842C14.7054 26.8842 15.1616 26.7286 15.5364 26.4492C15.7946 26.9655 16.173 27.4217 16.6292 27.7365L23.062 32.1464C23.5076 32.4505 24.0275 32.6132 24.5685 32.6132C25.0024 32.6137 25.4299 32.5083 25.8138 32.3062C26.1978 32.1041 26.5266 31.8113 26.7717 31.4533L27.5568 30.3075H78.6233V30.4631C78.6233 30.4737 78.6197 30.4878 78.6197 30.4984V33.9641C78.6197 34.8695 79.3023 35.5556 80.2041 35.5556H124.056C124.845 35.5556 125.464 35.0322 125.605 34.2966H125.609L126.489 29.1369L130.319 7.39475H125.474H125.481Z" fill="#E7E6F4"/>
<path d="M37.1994 8.81995H42.8153L39.2859 28.8823H29.6561L33.6134 6.41516H37.6273L37.1994 8.82349V8.81995ZM34.3632 24.8684H35.9687L38.0835 12.8303H36.478L34.3632 24.8684Z" fill="#686882"/>
<path d="M40.8909 28.8823L44.8482 6.41516H48.862L44.9047 28.8823H40.8909Z" fill="#686882"/>
<path d="M50.041 8.81995H59.6708L56.1414 28.8823H46.5116L49.0543 14.4394H54.6702L54.939 12.8338H49.3231L50.0445 8.81995H50.041ZM51.2186 24.8684H52.8242L53.9488 18.4497H52.3432L51.2186 24.8684Z" fill="#686882"/>
<path d="M62.4513 24.8719H64.0568L65.047 19.2277H69.0574L67.374 28.8823H57.7443L61.2736 8.81995H70.9034L69.3544 17.6505H65.3406L66.1716 12.8338H64.5661L62.4513 24.8719Z" fill="#686882"/>
<path d="M80.4254 18.4497L78.6077 28.8823H74.5938L75.7184 22.4636H74.1128L72.9882 28.8823H68.9779L72.9352 6.41516H76.9491L75.7997 12.8338H77.43L78.1515 8.81995H82.1371L80.7189 16.8477H75.103L74.8095 18.4497H80.4254Z" fill="#686882"/>
<path d="M11.9772 23.1251C11.8584 23.2969 11.6766 23.4149 11.4712 23.4533C11.2659 23.4917 11.0537 23.4475 10.8809 23.3302C10.7091 23.2114 10.5912 23.0296 10.5528 22.8243C10.5144 22.619 10.5586 22.4068 10.6758 22.2339C10.849 21.9793 11.1461 21.8591 11.4326 21.898L19.4921 10.1676L17.5612 3.59682C17.3773 3.58267 17.1899 3.52255 17.0272 3.40938C16.8355 3.27835 16.6909 3.0893 16.6145 2.87C16.5382 2.6507 16.5342 2.41269 16.6031 2.19094C16.672 1.96918 16.8102 1.77536 16.9973 1.63793C17.1845 1.5005 17.4108 1.4267 17.643 1.42737C17.8752 1.42805 18.1011 1.50315 18.2875 1.64167C18.4739 1.78018 18.6109 1.9748 18.6785 2.19695C18.7461 2.4191 18.7407 2.65708 18.6631 2.87594C18.5855 3.09479 18.4398 3.283 18.2473 3.41292C18.9051 5.6515 19.5629 7.89007 20.2207 10.1251C20.2525 10.2277 20.2348 10.3373 20.1747 10.4257L12.0196 22.2941C12.1575 22.5451 12.154 22.867 11.9807 23.1181L11.9772 23.1251ZM11.574 22.3224C11.376 22.188 11.1072 22.2375 10.9728 22.4355C10.8384 22.6336 10.8879 22.9023 11.086 23.0367C11.284 23.1711 11.5528 23.1216 11.6872 22.9235C11.8216 22.7255 11.7721 22.4567 11.574 22.3224ZM17.9573 2.05846C17.7062 1.88517 17.3597 1.94883 17.1864 2.20345C17.0131 2.45454 17.0767 2.80111 17.3314 2.9744C17.5825 3.14769 17.929 3.08403 18.1023 2.82941C18.2756 2.57832 18.2119 2.23174 17.9573 2.05846Z" fill="#686882"/>
<path d="M27.7067 10.5811C27.59 10.4998 27.5263 10.3548 27.5617 10.2062C28.0285 8.24705 27.2257 6.16054 25.5601 5.0218C23.9015 3.88306 21.6735 3.88306 20.0114 5.0218C19.8487 5.13143 19.6294 5.09253 19.5198 4.92985C19.4934 4.89158 19.4749 4.84848 19.4652 4.80302C19.4556 4.75755 19.455 4.71063 19.4635 4.66495C19.4721 4.61926 19.4896 4.57572 19.515 4.53682C19.5404 4.49792 19.5733 4.46443 19.6117 4.43828C21.5108 3.13687 24.0606 3.14041 25.9597 4.44182C27.8658 5.74677 28.7853 8.13388 28.2478 10.376C28.2343 10.4318 28.2075 10.4835 28.1696 10.5266C28.1317 10.5697 28.0839 10.6029 28.0303 10.6235C27.9767 10.644 27.9189 10.6512 27.8619 10.6444C27.8049 10.6377 27.7504 10.6172 27.7031 10.5846L27.7067 10.5811Z" fill="#686882"/>
<path d="M19.4401 2.93204C19.3765 2.8896 19.327 2.82948 19.2916 2.75875C19.1855 2.53949 19.281 2.27426 19.5002 2.16816C21.9545 1.00113 24.8721 1.231 27.1107 2.76229C29.3457 4.29357 30.6118 6.9247 30.4137 9.62655C30.4015 9.74083 30.3454 9.84589 30.2572 9.91959C30.169 9.99329 30.0556 10.0299 29.9409 10.0216C29.8263 10.0134 29.7194 9.96092 29.6426 9.87534C29.5659 9.78977 29.5254 9.67775 29.5296 9.56289C29.7029 7.17225 28.5819 4.84526 26.6085 3.49433C24.6281 2.13634 22.05 1.93476 19.8786 2.9674C19.7301 3.03813 19.5639 3.02045 19.4366 2.93204H19.4401Z" fill="#686882"/>
<path d="M25.6527 10.8891C25.599 10.8523 25.5607 10.797 25.5451 10.7338C25.5294 10.6705 25.5375 10.6038 25.5679 10.5461C26.3211 9.13152 25.8932 7.37744 24.567 6.46857C23.9298 6.02955 23.1529 5.84126 22.3854 5.93981C21.6179 6.03836 20.9138 6.41681 20.4082 7.00258C20.3127 7.11221 20.1429 7.12282 20.0333 7.03087C19.9803 6.98464 19.9476 6.91939 19.9423 6.84924C19.937 6.77909 19.9595 6.70967 20.005 6.656C21.2286 5.23789 23.3222 4.96911 24.8676 6.03005C26.4166 7.09099 26.9188 9.1386 26.0382 10.7937C25.9675 10.9245 25.8083 10.9705 25.6775 10.9033C25.6669 10.8998 25.6598 10.8927 25.6527 10.8891Z" fill="#686882"/>
<path d="M14.8723 25.1157C14.7536 25.2875 14.5717 25.4055 14.3664 25.4439C14.1611 25.4823 13.9489 25.4381 13.776 25.3208C13.6042 25.202 13.4863 25.0202 13.4478 24.8149C13.4094 24.6096 13.4537 24.3974 13.5709 24.2245C13.7442 23.9699 14.0413 23.8497 14.3242 23.8886C17.0331 19.9277 19.742 15.9634 22.451 12.0025C22.5111 11.9141 22.6066 11.8575 22.7127 11.8505C25.0361 11.656 27.3631 11.4615 29.6865 11.2705C29.7148 11.1396 29.7714 11.0123 29.8492 10.8956C30.0124 10.6585 30.2629 10.4956 30.5459 10.4426C30.8288 10.3896 31.1213 10.4507 31.3593 10.6127C31.8544 10.9522 31.9782 11.6277 31.6422 12.1228C31.479 12.3599 31.2285 12.5228 30.9455 12.5758C30.6626 12.6288 30.3701 12.5677 30.1321 12.4057C29.9695 12.2925 29.8457 12.144 29.7643 11.9742L22.939 12.5436L14.9042 24.2917C15.0421 24.5428 15.0385 24.8646 14.8653 25.1157H14.8723ZM14.4692 24.3129C14.2711 24.1786 14.0024 24.2281 13.868 24.4261C13.7336 24.6241 13.7831 24.8929 13.9811 25.0273C14.1792 25.1617 14.448 25.1122 14.5823 24.9141C14.7167 24.7161 14.6672 24.4473 14.4692 24.3129ZM31.0693 11.0512C30.8182 10.8779 30.4716 10.9416 30.2984 11.1962C30.1251 11.4473 30.1887 11.7939 30.4433 11.9672C30.6944 12.1405 31.041 12.0768 31.2143 11.8222C31.3876 11.5711 31.3239 11.2245 31.0693 11.0512Z" fill="#686882"/>
<path d="M12.9113 24.4193C13.0776 24.7588 13.0634 25.1797 12.8335 25.5156C12.6703 25.7528 12.4199 25.9157 12.1369 25.9687C11.8539 26.0217 11.5615 25.9605 11.3235 25.7986C11.0863 25.6353 10.9235 25.3849 10.8704 25.1019C10.8174 24.8189 10.8786 24.5265 11.0406 24.2885C11.2704 23.9525 11.6559 23.7863 12.0343 23.8217L21.268 10.3513C20.9892 10.018 20.8269 9.60262 20.8058 9.16853C20.7847 8.73443 20.906 8.30533 21.1513 7.94653C21.7702 7.04474 23.0115 6.81133 23.9133 7.43021C24.3477 7.72824 24.6461 8.1865 24.7429 8.70437C24.8397 9.22223 24.727 9.75734 24.4296 10.1922C24.1837 10.5506 23.8273 10.8186 23.4147 10.9552C23.0022 11.0919 22.5562 11.0897 22.145 10.949L12.9113 24.4193ZM12.25 24.4441C11.9989 24.2708 11.6524 24.3345 11.4791 24.5891C11.3058 24.8402 11.3695 25.1868 11.6241 25.36C11.8752 25.5333 12.2217 25.4697 12.395 25.2151C12.5683 24.964 12.5047 24.6174 12.25 24.4441ZM23.5101 8.01726C23.3715 7.92229 23.2155 7.85555 23.0511 7.82086C22.8867 7.78617 22.717 7.7842 22.5518 7.81507C22.2182 7.87741 21.9231 8.06972 21.7313 8.34969C21.5395 8.62966 21.4667 8.97436 21.5291 9.30796C21.5914 9.64155 21.7837 9.93672 22.0637 10.1285C22.3437 10.3203 22.6884 10.3931 23.022 10.3307C23.3556 10.2684 23.6507 10.0761 23.8425 9.7961C24.0343 9.51613 24.1071 9.17143 24.0447 8.83783C23.9824 8.50424 23.7901 8.20907 23.5101 8.01726Z" fill="#686882"/>
<path d="M23.8588 21.3638C23.5794 21.6043 23.0312 22.2656 22.6422 22.835L19.6398 27.2166L24.2655 30.3888C24.5059 30.5551 24.8384 30.4914 25.0046 30.2509C25.2981 29.823 25.5916 29.3951 25.8852 28.9636C26.1327 28.6029 26.405 27.931 26.4828 27.4996L27.6817 20.6141C27.1795 20.66 26.6809 20.706 26.1787 20.7555C25.4926 20.8192 24.1381 21.1233 23.8588 21.3638Z" fill="#686882"/>
<path d="M29.1146 13.1949C28.913 13.057 28.669 12.9969 28.4002 13.0251L24.1954 13.4283C23.6083 13.4849 22.8869 13.9093 22.5544 14.3973C20.7756 16.993 18.9968 19.5853 17.2179 22.181C16.9032 22.6372 16.6415 23.4294 16.6167 23.9811C16.6026 24.2781 16.592 24.5717 16.5778 24.8687C16.5531 25.4735 16.9244 26.2197 17.4266 26.5627C19.5732 28.0339 21.7163 29.5015 23.8594 30.9727C24.4217 31.3581 25.1962 31.2167 25.5816 30.6508L26.4622 29.3671C26.7664 28.9215 27.0811 28.1576 27.1731 27.6236L29.5071 14.2275C29.5814 13.8032 29.4328 13.4177 29.1075 13.1984L29.1146 13.1949ZM26.4834 27.4999C26.4092 27.9313 26.1369 28.6032 25.8858 28.964C25.5923 29.3919 25.2987 29.8198 25.0052 30.2512C24.839 30.4917 24.5066 30.5554 24.2661 30.3891L19.6404 27.2169L22.6429 22.8353C23.0319 22.2659 23.58 21.6011 23.8594 21.3641C24.1388 21.1236 25.4932 20.823 26.1793 20.7558C26.6815 20.7099 27.1801 20.6639 27.6823 20.6144L26.4834 27.4999Z" fill="#686882"/>
<path d="M10.2455 8.66095C8.2509 9.86334 6.2528 11.0622 4.25824 12.2611C3.88338 12.4874 3.35644 12.9825 3.10889 13.3468C2.81537 13.7747 2.52184 14.2026 2.22832 14.634C2.0621 14.8745 2.12576 15.2069 2.36624 15.3731L6.99192 18.5453L9.99437 14.1637C10.3834 13.5943 11.0199 12.3601 11.0129 11.9923C11.0058 11.6245 10.8467 10.7793 10.6592 10.1144C10.5213 9.62994 10.3834 9.14544 10.249 8.66095H10.2455Z" fill="#686882"/>
<path d="M18.2065 9.31868C17.8281 7.96422 17.4461 6.60622 17.0677 5.25175C16.997 4.99359 16.852 4.78494 16.6504 4.65056C16.3251 4.42776 15.9148 4.42776 15.5435 4.65056C11.6605 6.98815 7.77745 9.32222 3.89088 11.6598C3.4276 11.9392 2.82641 12.505 2.52227 12.9506C2.22875 13.3785 1.93522 13.8064 1.64169 14.2379C1.54973 14.3721 1.4851 14.5231 1.45151 14.6823C1.41791 14.8415 1.416 15.0057 1.44588 15.1657C1.47577 15.3256 1.53686 15.4781 1.62568 15.6144C1.71449 15.7507 1.82929 15.8682 1.96351 15.9601C4.1066 17.4313 6.25323 18.8989 8.39633 20.3701C8.8985 20.7131 9.72603 20.7909 10.2813 20.5505C10.5536 20.4338 10.8259 20.3135 11.0946 20.1968C11.6004 19.974 12.244 19.4436 12.5587 18.9874C14.3376 16.3916 16.1164 13.7994 17.8952 11.2036C18.2277 10.7156 18.3656 9.89159 18.2065 9.32575V9.31868ZM9.9948 14.1636L6.99235 18.5453L2.36667 15.3731C2.12619 15.2069 2.06253 14.878 2.22875 14.634C2.52227 14.2061 2.8158 13.7782 3.10932 13.3467C3.35688 12.986 3.88381 12.4873 4.25867 12.261C6.25323 11.0622 8.25133 9.85976 10.2459 8.6609C10.3838 9.14539 10.5182 9.62989 10.6561 10.1144C10.8436 10.7792 11.0027 11.6244 11.0098 11.9922C11.0168 12.36 10.3838 13.5943 9.99127 14.1636H9.9948Z" fill="#686882"/>
<path d="M83.5872 8.82364H107.844L108.208 6.7442H114.446L114.075 8.82364H117.544L117.909 6.7442H124.147L123.776 8.82364H128.624L125.091 28.8824H80.0543L83.5872 8.82364Z" fill="#686882"/>
<path d="M81.4462 34.233C81.3401 34.233 81.2941 34.187 81.2623 34.0845L80.1624 30.3783C80.1341 30.2828 80.1695 30.2297 80.2756 30.2297H80.8344C80.9334 30.2297 80.9758 30.2828 81.0041 30.3783L81.5735 32.3799C81.6619 32.6982 81.7149 33.2322 81.7149 33.2322C81.7149 33.2322 81.7857 32.6982 81.8741 32.3834L82.4434 30.3747C82.4717 30.2792 82.5142 30.2262 82.6203 30.2262H83.1331C83.2321 30.2262 83.2674 30.2792 83.2391 30.3747L82.1428 34.0809C82.1146 34.18 82.0615 34.2295 81.9554 34.2295H81.4426L81.4462 34.233Z" fill="#686882"/>
<path d="M84.5339 34.0773C84.5339 34.1834 84.4985 34.2294 84.3924 34.2294H83.8796C83.7735 34.2294 83.7382 34.1834 83.7382 34.0773V30.3817C83.7382 30.2756 83.7735 30.2297 83.8796 30.2297H84.3924C84.4985 30.2297 84.5339 30.2756 84.5339 30.3817V34.0773Z" fill="#686882"/>
<path d="M87.23 31.2483C87.23 30.9583 87.0355 30.8239 86.6607 30.8239C86.2787 30.8239 86.0842 30.9583 86.0842 31.2483V31.3367C86.0842 31.5418 86.2328 31.6196 86.3247 31.655L87.3503 32.0193C87.7499 32.1607 88.0434 32.433 88.0434 32.868V33.3207C88.0434 33.8158 87.6968 34.2791 86.643 34.2791C85.5962 34.2791 85.2355 33.8158 85.2355 33.3207V32.9493C85.2355 32.8433 85.2779 32.7973 85.3769 32.7973H85.872C85.9781 32.7973 86.0135 32.8433 86.0135 32.9493V33.2146C86.0135 33.5046 86.2363 33.639 86.6359 33.639C87.0285 33.639 87.2583 33.5046 87.2583 33.2146V33.0271C87.2583 32.7867 87.0214 32.6912 86.7597 32.5922L85.8473 32.2491C85.5644 32.143 85.3133 31.8424 85.3133 31.4888V31.1422C85.3133 30.6471 85.6209 30.1838 86.6501 30.1838C87.6792 30.1838 88.0081 30.6471 88.0081 31.1422V31.3827C88.0081 31.4817 87.9656 31.5312 87.8595 31.5312H87.3644C87.2654 31.5312 87.23 31.4853 87.23 31.3827V31.2483Z" fill="#686882"/>
<path d="M89.5143 34.0773C89.5143 34.1834 89.479 34.2294 89.3729 34.2294H88.8601C88.754 34.2294 88.7186 34.1834 88.7186 34.0773V30.3817C88.7186 30.2756 88.754 30.2297 88.8601 30.2297H89.3729C89.479 30.2297 89.5143 30.2756 89.5143 30.3817V34.0773Z" fill="#686882"/>
<path d="M90.2692 31.1422C90.2692 30.6471 90.6334 30.1838 91.6979 30.1838C92.7624 30.1838 93.1266 30.6471 93.1266 31.1422V33.3207C93.1266 33.8158 92.7624 34.2791 91.6979 34.2791C90.6334 34.2791 90.2692 33.8158 90.2692 33.3207V31.1422ZM92.3345 31.2837C92.3345 30.9902 92.094 30.8416 91.6979 30.8416C91.3018 30.8416 91.0684 30.9902 91.0684 31.2837V33.1792C91.0684 33.4727 91.3053 33.6213 91.6979 33.6213C92.0904 33.6213 92.3345 33.4727 92.3345 33.1792V31.2837Z" fill="#686882"/>
<path d="M96.755 34.0844C96.755 34.1834 96.7197 34.2329 96.6136 34.2329H96.1503C96.0725 34.2329 96.0442 34.2153 96.0159 34.1622L94.8807 32.2136C94.7216 31.9484 94.6509 31.7539 94.6438 31.7362V34.0844C94.6438 34.1834 94.6084 34.2329 94.5023 34.2329H94.039C93.933 34.2329 93.8976 34.187 93.8976 34.0844V30.3782C93.8976 30.2792 93.933 30.2297 94.039 30.2297H94.5023C94.566 30.2297 94.6013 30.2474 94.6261 30.2898L95.8108 32.3197C95.9098 32.4895 96.0124 32.7335 96.0124 32.7335V30.3782C96.0124 30.2792 96.0478 30.2297 96.1538 30.2297H96.6171C96.7232 30.2297 96.7586 30.2756 96.7586 30.3782V34.0844H96.755Z" fill="#686882"/>
<path d="M99.5046 34.0773C99.5046 34.1834 99.4692 34.2294 99.3631 34.2294H98.8503C98.7442 34.2294 98.7089 34.1834 98.7089 34.0773V30.3817C98.7089 30.2756 98.7442 30.2297 98.8503 30.2297H99.3631C99.4692 30.2297 99.5046 30.2756 99.5046 30.3817V34.0773Z" fill="#686882"/>
<path d="M103.187 34.0844C103.187 34.1834 103.152 34.2329 103.046 34.2329H102.583C102.505 34.2329 102.477 34.2153 102.448 34.1622L101.313 32.2136C101.154 31.9484 101.083 31.7539 101.076 31.7362V34.0844C101.076 34.1834 101.041 34.2329 100.935 34.2329H100.471C100.365 34.2329 100.33 34.187 100.33 34.0844V30.3782C100.33 30.2792 100.365 30.2297 100.471 30.2297H100.935C100.998 30.2297 101.034 30.2474 101.058 30.2898L102.243 32.3197C102.342 32.4895 102.445 32.7335 102.445 32.7335V30.3782C102.445 30.2792 102.48 30.2297 102.586 30.2297H103.049C103.156 30.2297 103.191 30.2756 103.191 30.3782V34.0844H103.187Z" fill="#686882"/>
<path d="M108.717 34.0844C108.717 34.1834 108.681 34.2329 108.575 34.2329H108.087C107.981 34.2329 107.946 34.187 107.946 34.0844V31.8494C107.939 31.8671 107.833 32.2278 107.776 32.3834L107.33 33.4797C107.288 33.5752 107.235 33.6282 107.136 33.6282H106.719C106.62 33.6282 106.567 33.5681 106.531 33.4797L106.033 32.295C105.972 32.1712 105.902 31.8989 105.898 31.86V34.0844C105.898 34.1834 105.863 34.2329 105.757 34.2329H105.293C105.187 34.2329 105.152 34.187 105.152 34.0844V30.3782C105.152 30.2792 105.187 30.2297 105.293 30.2297H105.757C105.835 30.2297 105.863 30.258 105.888 30.311L106.789 32.3657C106.86 32.5248 106.938 32.7795 106.938 32.7795C106.938 32.7795 107.016 32.5496 107.09 32.3728L107.96 30.3004C107.985 30.2474 108.024 30.2297 108.094 30.2297H108.582C108.688 30.2297 108.724 30.2756 108.724 30.3782V34.0844H108.717Z" fill="#686882"/>
<path d="M109.471 31.1422C109.471 30.6471 109.835 30.1838 110.899 30.1838C111.964 30.1838 112.328 30.6471 112.328 31.1422V33.3207C112.328 33.8158 111.964 34.2791 110.899 34.2791C109.835 34.2791 109.471 33.8158 109.471 33.3207V31.1422ZM111.536 31.2837C111.536 30.9902 111.295 30.8416 110.899 30.8416C110.503 30.8416 110.27 30.9902 110.27 31.2837V33.1792C110.27 33.4727 110.507 33.6213 110.899 33.6213C111.292 33.6213 111.536 33.4727 111.536 33.1792V31.2837Z" fill="#686882"/>
<path d="M115.348 30.2297C115.447 30.2297 115.497 30.265 115.497 30.3711V30.7425C115.497 30.8486 115.451 30.891 115.348 30.891H114.514V34.0809C114.514 34.187 114.478 34.2329 114.372 34.2329H113.86C113.753 34.2329 113.711 34.187 113.711 34.0809V30.891H112.876C112.77 30.891 112.728 30.8486 112.728 30.7425V30.3711C112.728 30.265 112.77 30.2297 112.876 30.2297H115.348Z" fill="#686882"/>
<path d="M116.772 34.0773C116.772 34.1834 116.737 34.2294 116.631 34.2294H116.118C116.012 34.2294 115.977 34.1834 115.977 34.0773V30.3817C115.977 30.2756 116.012 30.2297 116.118 30.2297H116.631C116.737 30.2297 116.772 30.2756 116.772 30.3817V34.0773Z" fill="#686882"/>
<path d="M117.527 31.1422C117.527 30.6471 117.891 30.1838 118.956 30.1838C120.02 30.1838 120.385 30.6471 120.385 31.1422V33.3207C120.385 33.8158 120.02 34.2791 118.956 34.2791C117.891 34.2791 117.527 33.8158 117.527 33.3207V31.1422ZM119.593 31.2837C119.593 30.9902 119.352 30.8416 118.956 30.8416C118.56 30.8416 118.326 30.9902 118.326 31.2837V33.1792C118.326 33.4727 118.563 33.6213 118.956 33.6213C119.348 33.6213 119.593 33.4727 119.593 33.1792V31.2837Z" fill="#686882"/>
<path d="M124.009 34.0844C124.009 34.1834 123.973 34.2329 123.867 34.2329H123.404C123.326 34.2329 123.298 34.2153 123.27 34.1622L122.135 32.2136C121.975 31.9484 121.905 31.7539 121.898 31.7362V34.0844C121.898 34.1834 121.862 34.2329 121.756 34.2329H121.293C121.187 34.2329 121.151 34.187 121.151 34.0844V30.3782C121.151 30.2792 121.187 30.2297 121.293 30.2297H121.756C121.82 30.2297 121.855 30.2474 121.88 30.2898L123.065 32.3197C123.164 32.4895 123.266 32.7335 123.266 32.7335V30.3782C123.266 30.2792 123.302 30.2297 123.408 30.2297H123.871C123.977 30.2297 124.012 30.2756 124.012 30.3782V34.0844H124.009Z" fill="#686882"/>
<path d="M6.98839 18.5416L9.99084 14.1599C10.3798 13.5905 11.0164 12.3563 11.0093 11.9885C11.0023 11.6207 10.8431 10.7755 10.6557 10.1106C10.5178 9.62615 10.3798 9.14166 10.2455 8.65717C8.2509 9.85956 6.2528 11.0584 4.25824 12.2573C3.88338 12.4836 3.35644 12.9787 3.10889 13.343C2.81537 13.7709 2.52184 14.1988 2.22832 14.6302C2.0621 14.8707 2.12576 15.2031 2.36624 15.3694L6.99192 18.5416H6.98839Z" fill="#C4C4DA"/>
<path d="M27.6817 20.6141L26.4828 27.4996C26.4085 27.931 26.1362 28.6029 25.8852 28.9636C25.5916 29.3916 25.2981 29.8195 25.0046 30.2509C24.8384 30.4914 24.5059 30.5551 24.2655 30.3888L19.6398 27.2166L22.6422 22.835C23.0312 22.2656 23.5794 21.6043 23.8588 21.3638C24.1381 21.1233 25.4926 20.8227 26.1787 20.7555C26.6809 20.7096 27.1795 20.6636 27.6817 20.6141Z" fill="#C4C4DA"/>
<path d="M84.7447 10.2099L81.6927 27.5279H85.1585L87.5845 13.6721H88.9708L86.5448 27.5279H90.0105L92.4365 13.6721H93.8193L91.3968 27.5279H94.859L97.9109 10.2099H84.7447Z" fill="#C4C4DA"/>
<path d="M99.2931 10.2099H107.607L104.559 27.5315H96.2446L99.2931 10.2099ZM102.133 13.6756L100.308 24.0693H101.694L103.519 13.6756H102.133Z" fill="#C4C4DA"/>
<path d="M109.363 8.13062H112.828L112.46 10.2101H117.309L116.687 13.6722H111.834L110.01 24.0659H111.396L112.991 15.0373H116.457L114.261 27.5281H105.946L109.363 8.13062Z" fill="#C4C4DA"/>
<path d="M119.064 8.13062L115.645 27.5281H119.11L121.533 13.6722H122.919L120.493 27.5281H123.959L127.007 10.2101H122.159L122.527 8.13062H119.064Z" fill="#C4C4DA"/>
</svg>
