<svg width="153" height="40" viewBox="0 0 153 40" fill="none" xmlns="http://www.w3.org/2000/svg">
<path d="M32.0748 30.6459C32.7542 35.7924 29.1152 39.9419 23.5503 40.0003C18.0207 40.0003 15.5337 35.8162 17.7317 30.6539C19.9303 25.4931 23.703 21.2986 26.2858 21.2986C28.8682 21.3194 31.3942 25.5089 32.0748 30.6459Z" fill="#C4C4DA"/>
<path d="M5.70995 16.971C7.54555 16.971 9.23925 17.7955 10.3846 19.2298C10.2609 19.3444 9.72923 20.0738 8.81774 20.0738C7.90698 20.0738 7.48113 19.02 5.70995 19.02C3.76683 19.02 2.15526 20.7459 2.15526 22.8888C2.15526 25.0303 3.76683 26.6807 5.70995 26.6807C7.69398 26.6807 7.91974 25.6763 8.92177 25.6763C9.9859 25.6763 10.3025 26.3525 10.4268 26.4697C9.28074 27.9027 7.54554 28.7271 5.70994 28.7271C2.40829 28.7271 0 26.1936 0 22.8888C0 19.5826 2.4083 16.971 5.70995 16.971Z" fill="#C4C4DA"/>
<path d="M17.3554 17.3118V17.9983C17.3554 18.7473 16.7289 19.2188 15.9437 19.2188H15.8459V25.4547C15.8595 27.6692 15.1887 28.702 15.1887 28.702C14.473 30.0943 12.9726 30.7665 11.9913 31.0713L11.9958 31.0752C11.8436 31.139 10.799 31.3956 10.76 31.4061C10.7556 31.4088 10.7516 31.4088 10.7471 31.4088H10.7411C10.7099 31.4074 10.687 31.3735 10.6716 31.3189C10.7265 30.5594 10.7384 30.0696 11.8296 29.5577C13.159 28.9339 13.4083 27.5517 13.4369 26.9746L13.4389 26.972C13.528 26.2164 13.4492 19.2187 13.4492 19.2187H11.38V18.5335C11.38 17.7845 11.9292 17.3129 12.7139 17.3129H17.3553" fill="#C4C4DA"/>
<path d="M41.2941 13.6322C46.1217 15.5334 47.986 20.8052 45.3335 25.632C42.65 30.4739 37.7893 30.6213 34.3459 26.1948C30.9018 21.7685 29.0945 16.4752 30.3127 14.1847C31.5617 11.9272 36.4528 11.7279 41.2941 13.6322Z" fill="#C4C4DA"/>
<path d="M16.6765 15.1783C12.3914 12.2495 11.7636 6.69842 15.4075 2.58207C19.097 -1.5382 23.8712 -0.598973 26.2441 4.4839C28.6174 9.56924 29.2109 15.1783 27.4902 17.0986C25.7856 19.0036 20.9728 18.1158 16.6765 15.1783Z" fill="#C4C4DA"/>
<path d="M56.8591 28.8084L50.0287 28.8222V18.1301C50.0212 17.9504 50.0401 17.7921 50.0855 17.6552C50.1385 17.5183 50.218 17.3985 50.3241 17.2958C50.4149 17.2102 50.5361 17.146 50.6876 17.1032C50.8466 17.0518 51.0284 17.0261 51.2328 17.0261L57.9837 17.0123V17.5899C57.9837 17.8124 57.9534 18.0092 57.8928 18.1804C57.8398 18.343 57.7641 18.4799 57.6656 18.5911C57.552 18.7195 57.4119 18.8136 57.2453 18.8735C57.0787 18.9249 56.8894 18.9506 56.6773 18.9506L51.9712 18.9644V22.5584C52.0242 22.4557 52.0924 22.3701 52.1757 22.3017C52.259 22.2332 52.3537 22.1733 52.4597 22.122C52.5506 22.0878 52.649 22.0621 52.7551 22.0449C52.8687 22.0278 52.9823 22.0192 53.0959 22.0192L57.6088 22.0054V22.3648C57.6088 22.6129 57.5785 22.8311 57.5179 23.0194C57.4649 23.1991 57.3854 23.3531 57.2794 23.4815C57.1658 23.6184 57.0257 23.7211 56.8591 23.7895C56.7 23.8494 56.5145 23.8794 56.3025 23.8794L51.9712 23.8932V27.4358C52.0242 27.3331 52.0924 27.2476 52.1757 27.1791C52.259 27.1021 52.3537 27.0379 52.4597 26.9866C52.5506 26.9524 52.649 26.9267 52.7551 26.9095C52.8687 26.8923 52.9823 26.8838 53.0959 26.8838L58.1655 26.8699V27.3449C58.1655 27.5674 58.1352 27.7642 58.0746 27.9353C58.0216 28.1065 57.9458 28.2562 57.8474 28.3846C57.7338 28.53 57.5937 28.637 57.4271 28.7054C57.2605 28.7739 57.0711 28.8084 56.8591 28.8084ZM61.3689 25.5224C61.3689 25.6936 61.3462 25.8391 61.3008 25.9589C61.2629 26.0701 61.2061 26.16 61.1304 26.2284C61.0395 26.3054 60.9259 26.3653 60.7896 26.4081C60.6608 26.4423 60.5132 26.4594 60.3465 26.4594H59.5627V17.9494C59.5627 17.7953 59.5816 17.6584 59.6195 17.5386C59.6574 17.4103 59.7217 17.3076 59.8126 17.2306C59.8884 17.1535 59.9906 17.0979 60.1193 17.0637C60.2481 17.0295 60.4033 17.0124 60.5851 17.0124H61.0054L64.8677 22.3136C64.9056 22.382 64.9435 22.4505 64.9813 22.5189C65.0192 22.5788 65.0608 22.6344 65.1063 22.6858C65.1214 22.72 65.1366 22.7542 65.1517 22.7885C65.1669 22.8227 65.182 22.8569 65.1972 22.8912C65.2123 22.9253 65.2275 22.9596 65.2426 22.9938C65.2577 23.028 65.2729 23.058 65.288 23.0838V17.9495C65.288 17.7955 65.3107 17.6586 65.3562 17.5388C65.4016 17.4104 65.4774 17.3077 65.5834 17.2307C65.6743 17.1537 65.7879 17.0981 65.9242 17.0639C66.0605 17.0297 66.2195 17.0126 66.4013 17.0126H67.0942V25.5226C67.0942 25.6938 67.0715 25.8392 67.0261 25.959C66.9806 26.0703 66.9125 26.1601 66.8216 26.2286C66.7307 26.3056 66.6171 26.3655 66.4808 26.4083C66.3445 26.4425 66.193 26.4596 66.0264 26.4596H65.7538L61.7438 21.0557C61.6983 21.0044 61.6567 20.9531 61.6188 20.9017C61.581 20.8418 61.5507 20.7819 61.5279 20.722C61.4901 20.6706 61.4598 20.6193 61.4371 20.568C61.4143 20.5166 61.3916 20.461 61.3689 20.4012V25.5224ZM72.3425 25.5224C72.3425 25.6936 72.3197 25.8391 72.2743 25.9589C72.2364 26.0701 72.1796 26.16 72.1039 26.2284C72.013 26.3054 71.8994 26.3653 71.7631 26.4081C71.6344 26.4423 71.4867 26.4594 71.3201 26.4594H70.5363V18.7837H67.9803V18.2703C67.9803 18.0906 68.003 17.9237 68.0485 17.7697C68.0939 17.6156 68.1658 17.4787 68.2643 17.3589C68.3552 17.2477 68.4688 17.1621 68.6051 17.1022C68.7414 17.0423 68.9042 17.0123 69.0936 17.0123H74.9098V17.4744C74.9098 17.6712 74.8871 17.8466 74.8416 18.0006C74.7962 18.1546 74.728 18.2873 74.6371 18.3985C74.5387 18.5269 74.4175 18.6253 74.2736 18.6937C74.1297 18.7537 73.9669 18.7837 73.7852 18.7837H72.3425V25.5224ZM80.2148 26.4594H75.7958V17.9494C75.7958 17.7954 75.8148 17.6585 75.8526 17.5387C75.8905 17.4103 75.9549 17.3076 76.0457 17.2306C76.1215 17.1536 76.2237 17.098 76.3525 17.0638C76.4812 17.0296 76.6364 17.0125 76.8182 17.0125H81.1917V17.5772C81.1917 17.7741 81.169 17.9452 81.1236 18.0907C81.0781 18.2361 81.01 18.3602 80.9191 18.4629C80.8206 18.5741 80.6995 18.6554 80.5556 18.7068C80.4117 18.7582 80.2489 18.7839 80.0671 18.7839H77.602V21.3638C77.6475 21.2783 77.7043 21.2055 77.7724 21.1456C77.8482 21.0857 77.9315 21.0343 78.0224 20.9916C78.1057 20.966 78.1927 20.9446 78.2836 20.9275C78.3745 20.9103 78.4729 20.9018 78.579 20.9018H80.9077V21.3639C80.9077 21.5607 80.885 21.7361 80.8396 21.8901C80.7941 22.0356 80.726 22.1639 80.6351 22.2752C80.5367 22.395 80.4155 22.4848 80.2716 22.5447C80.1353 22.5961 79.9762 22.6218 79.7945 22.6218H77.602V25.1505C77.6475 25.0649 77.7043 24.9922 77.7724 24.9323C77.8482 24.8724 77.9315 24.821 78.0224 24.7782C78.1057 24.7526 78.1928 24.7312 78.2836 24.7141C78.3745 24.697 78.473 24.6884 78.579 24.6884H81.328V25.2532C81.328 25.45 81.3053 25.6211 81.2599 25.7666C81.2145 25.9121 81.1463 26.0361 81.0554 26.1388C80.957 26.2501 80.8358 26.3314 80.6919 26.3827C80.5556 26.4341 80.3966 26.4598 80.2148 26.4598L80.2148 26.4594ZM87.3714 26.4594L85.2131 23.0965H84.4406V25.5738C84.4406 25.7449 84.4217 25.8861 84.3838 25.9974C84.346 26.1086 84.2929 26.1942 84.2248 26.2541C84.1415 26.3311 84.0355 26.3867 83.9067 26.421C83.778 26.4466 83.6303 26.4594 83.4637 26.4594H82.6344V17.9494C82.6344 17.7953 82.6534 17.6584 82.6912 17.5386C82.7291 17.4103 82.7934 17.3076 82.8843 17.2306C82.9601 17.1535 83.0623 17.0979 83.191 17.0637C83.3198 17.0295 83.475 17.0124 83.6568 17.0124H85.4176C85.9401 17.021 86.4059 17.0937 86.8148 17.2306C87.2313 17.3675 87.5873 17.5686 87.8826 17.8339C88.1704 18.1077 88.3862 18.4286 88.5301 18.7966C88.6816 19.156 88.7611 19.5582 88.7687 20.0031C88.7611 20.3882 88.7119 20.7348 88.621 21.0428C88.5301 21.3423 88.4014 21.599 88.2348 21.813C88.053 22.044 87.8523 22.2365 87.6327 22.3906C87.4131 22.5446 87.1745 22.6601 86.9171 22.7371C86.9322 22.7627 86.9474 22.7884 86.9625 22.8141C86.9852 22.8312 87.0079 22.8526 87.0307 22.8782C87.0382 22.8954 87.0458 22.9125 87.0534 22.9295C87.0609 22.9381 87.0685 22.9509 87.0761 22.968C87.0837 22.9851 87.0912 23.0022 87.0988 23.0192C87.114 23.0278 87.1291 23.0364 87.1443 23.0449L88.9618 25.7789V25.8302C88.9618 25.9243 88.9429 26.0099 88.905 26.0869C88.8748 26.1554 88.8255 26.2153 88.7574 26.2666C88.6892 26.3351 88.6021 26.3864 88.4961 26.4207C88.3976 26.4463 88.2878 26.4591 88.1666 26.4591L87.3714 26.4594ZM86.9625 20.1058C86.9549 19.8748 86.9171 19.6737 86.8489 19.5025C86.7807 19.3314 86.6785 19.1859 86.5422 19.0661C86.3983 18.9634 86.2317 18.8821 86.0424 18.8222C85.853 18.7624 85.6448 18.7324 85.4176 18.7324H84.4406V21.8386C84.4785 21.7788 84.5239 21.7231 84.5769 21.6718C84.6375 21.6204 84.7095 21.5776 84.7928 21.5434C84.8609 21.5178 84.9367 21.5007 85.02 21.4921C85.1033 21.4836 85.1904 21.4793 85.2812 21.4793H85.3721C85.5993 21.4793 85.8076 21.4536 85.9969 21.4023C86.1938 21.3509 86.368 21.2696 86.5195 21.1584C86.6558 21.0557 86.7618 20.9188 86.8375 20.7477C86.9133 20.5766 86.9549 20.3625 86.9625 20.1058ZM93.6988 25.5224C93.6988 25.6936 93.6761 25.8391 93.6307 25.9589C93.5928 26.0701 93.536 26.16 93.4603 26.2284C93.3694 26.3054 93.2558 26.3653 93.1195 26.4081C92.9908 26.4423 92.8431 26.4594 92.6765 26.4594H91.8926V18.7837H89.3367V18.2703C89.3367 18.0906 89.3594 17.9237 89.4049 17.7697C89.4503 17.6156 89.5222 17.4787 89.6207 17.3589C89.7116 17.2477 89.8252 17.1621 89.9615 17.1022C90.0978 17.0423 90.2606 17.0123 90.45 17.0123H96.2662V17.4744C96.2662 17.6712 96.2434 17.8466 96.198 18.0006C96.1526 18.1546 96.0844 18.2873 95.9935 18.3985C95.8951 18.5269 95.7739 18.6253 95.63 18.6937C95.4861 18.7537 95.3233 18.7837 95.1415 18.7837H93.6989L93.6988 25.5224ZM102.821 26.4594L102.196 24.5341C102.173 24.5427 102.147 24.547 102.116 24.547C102.094 24.547 102.071 24.547 102.048 24.547C102.018 24.5555 101.988 24.5598 101.957 24.5598C101.935 24.5598 101.912 24.5598 101.889 24.5598H99.515L99.799 23.6228C99.8444 23.4688 99.9012 23.3361 99.9694 23.2249C100.038 23.1137 100.117 23.0238 100.208 22.9553C100.291 22.9039 100.386 22.8654 100.492 22.8398C100.606 22.8056 100.73 22.7885 100.867 22.7885H101.639L100.685 19.8363C100.655 19.7593 100.628 19.6823 100.606 19.6053C100.583 19.5197 100.564 19.4342 100.549 19.3486C100.526 19.2716 100.503 19.1945 100.481 19.1175C100.465 19.032 100.45 18.9464 100.435 18.8608L98.3563 25.561C98.3109 25.7322 98.2541 25.8776 98.1859 25.9974C98.1178 26.1087 98.0458 26.1943 97.9701 26.2542C97.8792 26.3312 97.7732 26.3868 97.652 26.421C97.5384 26.4466 97.4059 26.4595 97.2544 26.4595H96.2661V26.3054L98.7766 18.373C98.8523 18.1077 98.9432 17.8852 99.0493 17.7056C99.1553 17.5173 99.2765 17.3718 99.4128 17.2691C99.5339 17.1836 99.6665 17.1194 99.8104 17.0766C99.9618 17.0338 100.128 17.0125 100.31 17.0125H101.662L104.491 25.561V25.7279C104.491 25.822 104.475 25.9118 104.445 25.9974C104.415 26.0744 104.366 26.1472 104.298 26.2156C104.222 26.2927 104.123 26.3525 104.002 26.3953C103.889 26.4381 103.752 26.4595 103.593 26.4595L102.821 26.4594ZM107.421 25.5224C107.421 25.6936 107.399 25.8391 107.353 25.9589C107.308 26.0701 107.24 26.16 107.149 26.2284C107.058 26.3054 106.944 26.3653 106.808 26.4081C106.672 26.4423 106.52 26.4594 106.354 26.4594H105.615V17.9494C105.615 17.7953 105.634 17.6584 105.672 17.5386C105.71 17.4103 105.774 17.3076 105.865 17.2306C105.941 17.1535 106.043 17.0979 106.172 17.0637C106.301 17.0295 106.456 17.0124 106.638 17.0124H107.421L107.421 25.5224ZM111 25.5224C111 25.6936 110.977 25.8391 110.932 25.9589C110.894 26.0701 110.837 26.16 110.761 26.2284C110.67 26.3054 110.557 26.3653 110.42 26.4081C110.292 26.4423 110.144 26.4594 109.977 26.4594H109.194V17.9494C109.194 17.7953 109.212 17.6584 109.25 17.5386C109.288 17.4103 109.352 17.3076 109.443 17.2306C109.519 17.1535 109.621 17.0979 109.75 17.0637C109.879 17.0295 110.034 17.0124 110.216 17.0124H110.636L114.498 22.3136C114.536 22.382 114.574 22.4505 114.612 22.5189C114.65 22.5788 114.692 22.6344 114.737 22.6858C114.752 22.72 114.767 22.7542 114.782 22.7885C114.798 22.8227 114.813 22.8569 114.828 22.8912C114.843 22.9253 114.858 22.9596 114.873 22.9938C114.888 23.028 114.904 23.058 114.919 23.0838V17.9495C114.919 17.7955 114.941 17.6586 114.987 17.5388C115.032 17.4104 115.108 17.3077 115.214 17.2307C115.305 17.1537 115.419 17.0981 115.555 17.0639C115.691 17.0297 115.85 17.0126 116.032 17.0126H116.725V25.5226C116.725 25.6938 116.702 25.8392 116.657 25.959C116.611 26.0703 116.543 26.1601 116.452 26.2286C116.361 26.3056 116.248 26.3655 116.111 26.4083C115.975 26.4425 115.824 26.4596 115.657 26.4596H115.384L111.374 21.0557C111.329 21.0044 111.287 20.9531 111.249 20.9017C111.212 20.8418 111.181 20.7819 111.159 20.722C111.121 20.6706 111.091 20.6193 111.068 20.568C111.045 20.5166 111.022 20.461 111 20.4012L111 25.5224ZM128.119 25.5224C128.119 25.6936 128.096 25.8391 128.051 25.9589C128.013 26.0701 127.956 26.16 127.88 26.2284C127.789 26.3054 127.676 26.3653 127.54 26.4081C127.411 26.4423 127.263 26.4594 127.097 26.4594H126.313V20.3368L124.359 25.6764C124.313 25.7962 124.26 25.9032 124.2 25.9973C124.139 26.0914 124.075 26.1727 124.007 26.2412C123.931 26.3182 123.84 26.3738 123.734 26.4081C123.636 26.4423 123.518 26.4594 123.382 26.4594H122.632L120.633 21.1582C120.595 21.0898 120.565 21.0213 120.542 20.9529C120.519 20.8758 120.497 20.7988 120.474 20.7218C120.451 20.6619 120.428 20.5934 120.406 20.5165C120.383 20.4394 120.364 20.3581 120.349 20.2726V25.5224C120.349 25.6935 120.326 25.839 120.281 25.9588C120.243 26.07 120.186 26.1598 120.11 26.2283C120.019 26.3053 119.906 26.3652 119.769 26.408C119.641 26.4422 119.493 26.4593 119.326 26.4593H118.542V17.9493C118.542 17.7952 118.561 17.6583 118.599 17.5385C118.637 17.4102 118.701 17.3075 118.792 17.2305C118.868 17.1534 118.97 17.0978 119.099 17.0636C119.228 17.0294 119.383 17.0123 119.565 17.0123H120.917L123.143 23.1093C123.166 23.1607 123.185 23.212 123.2 23.2633C123.215 23.3147 123.234 23.366 123.257 23.4173C123.257 23.4515 123.261 23.4815 123.268 23.5072C123.276 23.5328 123.283 23.5584 123.291 23.5841C123.299 23.6098 123.306 23.6355 123.314 23.6612C123.322 23.6869 123.329 23.7126 123.337 23.7383H123.359L125.291 18.1677C125.336 17.9965 125.393 17.8425 125.461 17.7056C125.537 17.5601 125.62 17.4318 125.711 17.3205C125.802 17.2178 125.919 17.1408 126.063 17.0895C126.207 17.0381 126.381 17.0124 126.586 17.0124H128.119L128.119 25.5224ZM134.367 26.4594H129.948V17.9494C129.948 17.7954 129.967 17.6585 130.005 17.5387C130.042 17.4103 130.107 17.3076 130.198 17.2306C130.273 17.1536 130.376 17.098 130.504 17.0638C130.633 17.0296 130.788 17.0125 130.97 17.0125H135.344V17.5772C135.344 17.7741 135.321 17.9452 135.276 18.0907C135.23 18.2361 135.162 18.3602 135.071 18.4629C134.973 18.5741 134.851 18.6554 134.708 18.7068C134.564 18.7582 134.401 18.7839 134.219 18.7839H131.754V21.3638C131.799 21.2783 131.856 21.2055 131.924 21.1456C132 21.0857 132.083 21.0343 132.174 20.9916C132.258 20.966 132.345 20.9446 132.436 20.9275C132.526 20.9103 132.625 20.9018 132.731 20.9018H135.06V21.3639C135.06 21.5607 135.037 21.7361 134.991 21.8901C134.946 22.0356 134.878 22.1639 134.787 22.2752C134.689 22.395 134.567 22.4848 134.423 22.5447C134.287 22.5961 134.128 22.6218 133.946 22.6218H131.754V25.1505C131.799 25.0649 131.856 24.9922 131.924 24.9323C132 24.8724 132.083 24.821 132.174 24.7782C132.258 24.7526 132.345 24.7312 132.436 24.7141C132.526 24.697 132.625 24.6884 132.731 24.6884H135.48V25.2532C135.48 25.45 135.457 25.6211 135.412 25.7666C135.366 25.9121 135.298 26.0361 135.207 26.1388C135.109 26.2501 134.988 26.3314 134.844 26.3827C134.707 26.4341 134.548 26.4598 134.367 26.4598L134.367 26.4594ZM138.593 25.5224C138.593 25.6936 138.57 25.8391 138.524 25.9589C138.487 26.0701 138.43 26.16 138.354 26.2284C138.263 26.3054 138.15 26.3653 138.013 26.4081C137.885 26.4423 137.737 26.4594 137.57 26.4594H136.786V17.9494C136.786 17.7953 136.805 17.6584 136.843 17.5386C136.881 17.4103 136.945 17.3076 137.036 17.2306C137.112 17.1535 137.214 17.0979 137.343 17.0637C137.472 17.0295 137.627 17.0124 137.809 17.0124H138.229L142.092 22.3136C142.129 22.382 142.167 22.4505 142.205 22.5189C142.243 22.5788 142.285 22.6344 142.33 22.6858C142.345 22.72 142.36 22.7542 142.375 22.7885C142.391 22.8227 142.406 22.8569 142.421 22.8912C142.436 22.9253 142.451 22.9596 142.466 22.9938C142.481 23.028 142.497 23.058 142.512 23.0838V17.9495C142.512 17.7955 142.534 17.6586 142.58 17.5388C142.625 17.4104 142.701 17.3077 142.807 17.2307C142.898 17.1537 143.012 17.0981 143.148 17.0639C143.284 17.0297 143.443 17.0126 143.625 17.0126H144.318V25.5226C144.318 25.6938 144.295 25.8392 144.25 25.959C144.204 26.0703 144.136 26.1601 144.045 26.2286C143.954 26.3056 143.841 26.3655 143.704 26.4083C143.568 26.4425 143.417 26.4596 143.25 26.4596H142.977L138.967 21.0557C138.922 21.0044 138.88 20.9531 138.842 20.9017C138.805 20.8418 138.774 20.7819 138.752 20.722C138.714 20.6706 138.684 20.6193 138.661 20.568C138.638 20.5166 138.615 20.461 138.593 20.4012L138.593 25.5224ZM149.566 25.5224C149.566 25.6936 149.544 25.8391 149.498 25.9589C149.46 26.0701 149.403 26.16 149.328 26.2284C149.237 26.3054 149.123 26.3653 148.987 26.4081C148.858 26.4423 148.71 26.4594 148.544 26.4594H147.76V18.7837H145.204V18.2703C145.204 18.0906 145.227 17.9237 145.272 17.7697C145.318 17.6156 145.39 17.4787 145.488 17.3589C145.579 17.2477 145.693 17.1621 145.829 17.1022C145.965 17.0423 146.128 17.0123 146.317 17.0123H152.134V17.4744C152.134 17.6712 152.111 17.8466 152.065 18.0006C152.02 18.1546 151.952 18.2873 151.861 18.3985C151.762 18.5269 151.641 18.6253 151.497 18.6937C151.353 18.7537 151.191 18.7837 151.009 18.7837H149.566L149.566 25.5224Z" fill="#C4C4DA"/>
</svg>
