<svg width="179" height="27" viewBox="0 0 179 27" fill="none" xmlns="http://www.w3.org/2000/svg">
<g clip-path="url(#clip0_1926_5082)">
<path d="M13.3332 26.6667C20.6984 26.6667 26.6663 20.6927 26.6663 13.3314C26.6663 5.97006 20.6984 0 13.3332 0C5.96795 0 0 5.96654 0 13.3314C0 20.6963 5.97006 26.6667 13.3332 26.6667Z" fill="#C4C4DA"/>
<path d="M12.8041 7.47955V19.1679H16.5187V18.1273H13.8647V7.47955H12.8041Z" fill="white"/>
<path d="M9.07768 10.6703C9.96223 10.6703 10.6785 9.95366 10.6785 9.07368C10.6785 8.1937 9.96188 7.47253 9.07768 7.47253C8.19347 7.47253 7.48181 8.18948 7.48181 9.07368C7.48181 9.95789 8.20016 10.6703 9.07768 10.6703Z" fill="white"/>
<path d="M13.8649 2.17588C13.7286 2.16989 13.4627 2.16602 13.3346 2.16602C7.18351 2.16602 2.17688 7.17405 2.17688 13.3286C2.17688 16.3101 3.33469 19.1099 5.43904 21.2175C7.5543 23.3264 10.3583 24.486 13.3346 24.486C16.3108 24.486 19.1159 23.3264 21.2308 21.2175C23.3334 19.1099 24.4915 16.3101 24.4915 13.3286V12.8191L24.0468 12.8226H16.527V13.8586H23.4327V14.0086C23.0781 19.2719 18.6845 23.4443 13.3346 23.4443C10.6334 23.4443 8.09377 22.3929 6.18274 20.4829C4.27066 18.5722 3.21814 16.0305 3.21814 13.329C3.21814 10.6274 4.27066 8.08466 6.18274 6.1754C8.09377 4.26085 10.6337 3.21009 13.3346 3.21009C13.4568 3.21009 13.7437 3.21255 13.8649 3.21537V2.17623V2.17588Z" fill="white"/>
<path d="M36.6095 4.63995H32.6272V21.8786H44.8599V18.5221H36.6095V4.63995Z" fill="#C4C4DA"/>
<path d="M53.621 15.3086H56.862V18.3215C56.2662 18.55 55.101 18.7789 53.9921 18.7789C50.4067 18.7789 49.2116 16.9569 49.2116 13.2585C49.2116 9.56005 50.3483 7.65466 53.9333 7.65466C55.9243 7.65466 57.0631 8.2811 58.0008 9.47518L60.4777 7.20146C58.9695 5.03901 56.3226 4.3844 53.8478 4.3844C48.2717 4.3844 45.3409 7.42788 45.3409 13.2296C45.3409 19.0314 47.9865 22.1333 53.8196 22.1333C56.4923 22.1333 59.1097 21.4516 60.5337 20.4554V12.0926H53.621V15.3083V15.3086Z" fill="#C4C4DA"/>
<path d="M66.5867 4.65721V21.8589H78.093V18.8679H70.1207V14.4564H77.5486V11.5382H70.1207V7.59928H77.8095V4.65756H66.5867V4.65721ZM79.4423 21.8589H82.9042V4.58784H79.4423V21.8589ZM95.1492 15.4011C95.1492 11.9844 93.6076 9.59376 89.7873 9.59376C85.967 9.59376 83.9753 11.8689 83.9753 15.8075C83.9753 19.9831 85.4944 22.1427 89.9517 22.1427C92.0652 22.1427 94.009 21.5018 94.9348 20.8874L94.2942 18.6309C93.2745 19.1521 91.7783 19.5334 90.5715 19.5334C89.3647 19.5334 88.4591 19.1781 88.0787 18.7724C87.6284 18.2752 87.4171 17.4685 87.4171 16.6385H95.1492V15.4008V15.4011ZM91.7554 14.4324H87.4171C87.4632 12.7721 88.2678 11.9647 89.6922 11.9647C91.261 11.9647 91.7554 12.9841 91.7554 14.4324ZM106.579 11.1801C105.748 10.3251 104.135 9.66101 102.332 9.66101C98.1321 9.66101 96.1412 11.559 96.1412 15.9473C96.1412 20.3356 97.7304 22.1857 102.213 22.1857C104.064 22.1857 105.653 21.7367 106.532 21.1909L105.82 18.8175C104.943 19.2457 103.827 19.5531 102.524 19.5531C100.673 19.5531 99.4861 18.5337 99.4861 15.9962C99.4861 13.2443 100.506 12.2231 102.357 12.2231C103.375 12.2231 104.252 12.6503 104.823 13.1728L106.58 11.1801H106.579ZM116.841 9.8987H112.83V7.02988L109.438 7.59047V9.8987H107.374V12.582H109.438V17.8481C109.438 21.0032 110.41 22.1424 113.162 22.1424C114.705 22.1424 116.176 21.8099 117.312 21.193L116.815 18.7249C116.081 19.1059 115.107 19.3193 114.42 19.3193C113.257 19.3193 112.83 18.9383 112.83 17.4213V12.6048H116.841V9.89835V9.8987ZM118.544 9.8987V21.8589H121.984V13.625C122.577 12.8679 123.666 12.3911 124.782 12.3911C125.4 12.3911 126.087 12.5577 126.465 12.7703L127.25 9.99483C126.727 9.71066 125.851 9.59376 125.044 9.59376C123.881 9.59376 122.44 10.1132 121.704 11.0864L121.705 9.8987H118.544H118.544ZM133.172 9.59376C128.805 9.59376 126.955 11.6562 126.955 15.8307C126.955 19.7468 128.285 22.1424 132.674 22.1424C137.063 22.1424 138.912 20.1257 138.912 15.9501C138.912 11.7745 137.585 9.59376 133.172 9.59376ZM135.426 15.7374C135.426 18.4897 134.903 19.6514 132.744 19.6514C130.941 19.6514 130.444 18.2509 130.444 15.855C130.444 13.1514 131.013 12.0819 133.101 12.0819C135.022 12.0819 135.426 13.5081 135.426 15.7374ZM140.15 9.8987V21.8589H143.589V13.0556C144.017 12.7468 144.871 12.4386 145.584 12.4386C147.267 12.4386 147.622 13.1042 147.622 14.4324V21.8589H151.062V13.6024C151.062 11.2055 150.208 9.61629 147.338 9.61629C146.009 9.61629 144.606 9.9473 143.372 10.7083V9.8987H140.15ZM152.743 7.3144H156.231V4.54065H152.743V7.3144ZM152.769 21.8589H156.208V9.90082H152.769V21.8589ZM167.808 11.1347C166.979 10.2797 165.366 9.61629 163.563 9.61629C159.365 9.61629 157.371 11.5136 157.371 15.9026C157.371 20.2916 158.961 22.1424 163.444 22.1424C165.293 22.1424 166.885 21.6913 167.761 21.1455L167.05 18.7724C166.172 19.201 165.059 19.5088 163.752 19.5088C161.901 19.5088 160.716 18.4893 160.716 15.9501C160.716 13.1989 161.735 12.1774 163.587 12.1774C164.608 12.1774 165.482 12.6048 166.055 13.1267L167.808 11.1347ZM178.652 10.6607C177.25 10.0188 175.9 9.61629 173.955 9.61629C170.609 9.61629 168.831 11.0386 168.831 13.2471C168.831 15.4557 170.276 16.5195 172.128 16.9466L173.479 17.2548C174.689 17.5171 175.449 17.9199 175.449 18.5126C175.449 19.2492 174.689 19.6281 173.6 19.6281C172.224 19.6281 170.609 19.1771 169.613 18.6077L168.734 21.0726C169.945 21.7152 171.464 22.192 173.574 22.192C176.776 22.192 178.745 20.9307 178.745 18.2978C178.745 16.5434 177.656 15.5469 176.209 15.1191C175.805 15.0008 175.069 14.7874 174.547 14.6701C173.29 14.4078 172.03 14.1461 172.03 13.1985C172.03 12.4865 172.792 12.1066 174.025 12.1066C175.401 12.1066 176.731 12.4629 177.678 12.9834L178.652 10.6604V10.6607Z" fill="#C4C4DA"/>
</g>
<defs>
<clipPath id="clip0_1926_5082">
<rect width="178.745" height="26.6667" fill="white"/>
</clipPath>
</defs>
</svg>
