<svg width="151" height="23" viewBox="0 0 151 23" fill="none" xmlns="http://www.w3.org/2000/svg">
<path fill-rule="evenodd" clip-rule="evenodd" d="M36.0537 6.3661H41.6238L41.8689 8.20224C42.2973 6.73367 45.1136 5.69264 46.8272 5.69264C50.8063 5.69264 52.3974 8.14141 52.3974 12.4263V21.6687H46.2155V13.4048C46.2155 11.7529 45.9096 10.5285 44.2568 10.5285C42.7265 10.5285 41.9306 12.1813 41.9306 13.3448V21.6687H36.0546L36.0537 6.3661ZM0 21.7304V0.0616891H10.3443C16.527 0.0616891 19.3425 3.06052 19.3425 7.40712C19.3425 12.0605 16.7721 15.2435 10.3443 15.2435H6.85534V21.7313L0 21.7304ZM9.61084 9.97755C11.2636 9.97755 13.0381 9.60998 13.0381 7.713C13.0381 5.75433 11.1411 5.32593 9.61084 5.32593H6.85619V9.97755H9.61084ZM104.122 6.3661H109.753L109.937 8.20224C110.427 6.73367 113.242 5.69264 114.957 5.69264C118.875 5.69264 120.527 8.14141 120.527 12.4263V21.7304H114.345V13.4048C114.345 11.7529 113.976 10.5285 112.325 10.5285C110.856 10.5285 110.059 12.1813 110.059 13.3448V21.7304H104.121V6.3661H104.122ZM75.7206 16.222C75.7206 16.8346 76.0265 17.7514 76.3932 18.0581C76.8216 18.364 77.3725 18.6707 78.0468 18.6707C79.1478 18.6707 80.0046 18.3649 80.0046 17.3238C80.0663 14.7534 70.7005 17.018 70.7005 10.8969C70.7005 6.61285 74.007 5.63267 77.4342 5.63267C80.8614 5.63267 85.5756 6.30612 85.3914 10.9577H80.1888C80.1888 10.5293 80.0046 10.2235 79.7604 9.85588C79.392 9.42748 78.9636 9.24412 78.1693 9.18243C77.1283 9.12159 76.1498 9.30495 76.1498 10.1009C76.2098 12.4889 85.8207 10.8969 85.8207 16.5287C85.8207 20.4461 83.066 22.2222 77.7409 22.2222C74.3737 22.1605 70.1505 20.4469 70.1505 16.2228L75.7206 16.222ZM139.074 12.3038C139.074 11.9354 139.074 11.447 138.586 10.8344C138.34 10.5285 137.789 9.85503 136.932 9.85503C134.606 9.85503 133.993 12.1196 133.993 13.9574C133.993 16.0995 134.974 17.8748 136.809 17.8748C138.401 17.8748 139.197 16.4053 139.197 15.1801H144.584C144.707 18.3631 142.502 22.1588 136.565 22.1588C131.729 22.1588 128.301 18.7916 128.301 13.8949C128.301 7.95719 132.708 5.69179 136.503 5.69179C141.645 5.69179 144.584 8.814 144.522 12.3029H139.074V12.3038ZM29.5042 21.7304L28.8925 20.4452C27.7298 21.4245 26.5054 21.9746 24.5467 21.9746C22.6489 21.9146 18.9149 21.6687 18.9149 17.568C18.9149 10.8344 28.9542 13.8949 28.9542 10.5893C28.9542 9.48745 27.7298 9.54829 27.0563 9.54829C25.832 9.54829 25.0368 9.79334 24.8526 11.6286H19.7109C19.7109 8.44643 20.6911 5.75348 27.4239 5.75348C33.9742 5.75348 34.6468 9.18072 34.6468 12.548V19.5267C34.6468 20.4452 34.7085 20.8736 35.3203 21.5462V21.6687L29.5042 21.7304ZM29.015 14.6909C26.9338 15.6719 24.3017 15.6094 24.2409 17.1405C24.2409 18.1198 24.7918 18.6082 26.0162 18.6082C28.0357 18.6082 29.1375 16.5279 29.015 14.6909ZM64.0285 21.7304L63.4168 20.4452C62.2541 21.4245 60.968 21.9746 59.0702 21.9746C57.1115 21.9146 53.3775 21.6687 53.3775 17.568C53.3775 10.8344 63.4168 13.8949 63.4776 10.5893C63.4776 9.48745 62.1924 9.54829 61.5806 9.54829C60.2954 9.54829 59.5603 9.79334 59.3769 11.6286H54.2352C54.2352 8.44643 55.1529 5.75348 61.9474 5.75348C68.436 5.75348 69.1094 9.18072 69.1094 12.548V19.5267C69.1094 20.4452 69.1703 20.8736 69.7829 21.5462V21.6687L64.0285 21.7304ZM63.5385 14.6909C61.4573 15.6719 58.7635 15.6094 58.7635 17.1405C58.7635 18.1198 59.2527 18.6082 60.5388 18.6082C62.4983 18.6082 63.661 16.5279 63.5385 14.6909ZM127.321 21.7304V6.3661H121.629V21.7304H127.321ZM121.63 4.40743H127.322V0H121.63V4.40743ZM94.9397 5.81517C100.021 5.81517 103.143 9.36579 103.143 14.0174C103.143 18.7316 100.02 22.2205 94.9397 22.2205C89.8597 22.2205 86.6758 18.7316 86.6758 14.0174C86.6766 9.36579 89.8597 5.81517 94.9397 5.81517ZM92.2476 14.0174C92.2476 15.9152 92.8602 18.2415 94.9405 18.3032C97.0226 18.3032 97.5727 15.9152 97.5727 14.0174C97.5727 12.1813 97.0217 9.79419 94.9405 9.79419C92.8602 9.79419 92.3093 12.1821 92.2476 14.0174ZM148.196 18.7316C148.563 18.7316 149.113 18.7916 149.113 18.3032C149.113 17.8748 148.746 17.8131 148.441 17.8131H147.706V18.7316H148.196ZM149.419 20.201H149.052L148.318 18.9758H147.705V20.201H147.4V17.5689H148.502C148.994 17.5689 149.431 17.7163 149.431 18.3032C149.431 18.7916 149.113 18.9758 148.625 18.9758L149.419 20.201ZM150.308 18.9458C150.308 17.7831 149.39 16.8637 148.289 16.8637C148.015 16.8615 147.743 16.9137 147.49 17.0176C147.236 17.1214 147.005 17.2747 146.812 17.4685C146.618 17.6623 146.465 17.8927 146.361 18.1463C146.257 18.4 146.205 18.6717 146.207 18.9458C146.207 20.0468 147.125 20.9653 148.289 20.9653C148.823 20.9606 149.334 20.7463 149.712 20.3686C150.089 19.9909 150.304 19.4799 150.308 18.9458ZM145.93 18.9141C145.93 18.2971 146.175 17.7054 146.611 17.2692C147.048 16.8329 147.639 16.5878 148.256 16.5878C148.873 16.5878 149.465 16.8329 149.901 17.2692C150.338 17.7054 150.583 18.2971 150.583 18.9141C150.583 20.201 149.542 21.2403 148.256 21.2403C146.971 21.2403 145.93 20.201 145.93 18.9141Z" fill="#C4C4DA"/>
</svg>
