<svg width="146" height="27" viewBox="0 0 146 27" fill="none" xmlns="http://www.w3.org/2000/svg">
<g clip-path="url(#clip0_1926_5060)">
<path d="M39.167 7.64809C39.5559 7.64809 39.8893 7.9629 39.8893 8.37031V22.1666C39.8893 22.5555 39.5374 22.8703 39.167 22.8703H37.2967C36.9448 22.8703 36.593 22.5925 36.593 22.2036V20.9259C35.6485 22.3148 34.0189 23.2777 31.6485 23.2777C27.6856 23.2777 25.2411 20.6481 25.2411 16.7407V8.33327C25.2411 7.94438 25.593 7.62957 25.9633 7.62957H27.8337C28.2226 7.62957 28.5374 7.94438 28.5374 8.33327V16.2036C28.5374 18.7407 29.8707 20.4259 32.5004 20.4259C35.0744 20.4259 36.593 18.6851 36.593 16.2407V8.33327C36.593 7.94438 36.9448 7.62957 37.2967 7.62957H39.167M11.5744 -6.10352e-05C5.16703 -6.10352e-05 0.000366211 4.98142 0.000366211 11.6296C0.000366211 18.2962 5.16703 23.2592 11.5744 23.2592C12.667 23.2592 13.7226 23.111 14.7226 22.8333L15.9819 26.074C16.1115 26.4259 16.3707 26.6481 16.8337 26.6481H18.8337C19.3152 26.6481 19.667 26.3333 19.4448 25.7222L17.8152 21.4814C21.0189 19.4629 23.1485 15.8888 23.1485 11.611C23.1485 4.98142 17.9818 -6.10352e-05 11.5744 -6.10352e-05ZM16.6115 18.3888L15.1485 14.5925C15.0189 14.2777 14.7596 13.9814 14.2041 13.9814H12.2967C11.8152 13.9814 11.4448 14.2962 11.667 14.9073L13.593 19.8888C12.9633 20.0555 12.2781 20.1296 11.5744 20.1296C6.88926 20.1296 3.55592 16.4444 3.55592 11.6296C3.55592 6.81475 6.88926 3.12957 11.5744 3.12957C16.2596 3.12957 19.593 6.81475 19.593 11.6296C19.593 14.4444 18.4633 16.8518 16.6115 18.3888ZM145.056 22.0925C145.223 22.4814 145.019 22.8518 144.556 22.8518H142.463C142.074 22.8518 141.76 22.6666 141.63 22.2777L137.76 11.8703L133.834 22.2777C133.667 22.6851 133.389 22.8518 133 22.8518H131.13C130.741 22.8518 130.463 22.6851 130.297 22.2777L126.334 11.8148L122.426 22.2777C122.26 22.6666 121.982 22.8518 121.593 22.8518H119.63C119.241 22.8518 118.963 22.6666 118.797 22.2777L114.926 11.8148L110.926 22.2777C110.76 22.6851 110.482 22.8518 110.093 22.8518H108.223C107.834 22.8518 107.556 22.6851 107.389 22.2777L103.482 11.8148L99.5745 22.2777C99.4448 22.6666 99.13 22.8518 98.7411 22.8518H96.7041C96.2226 22.8518 96.0374 22.4629 96.2041 22.0925L101.5 8.24068C101.667 7.83327 101.945 7.62957 102.334 7.62957H104.611C105 7.62957 105.278 7.81475 105.445 8.24068L109.26 18.3518L113.037 8.24068C113.204 7.83327 113.482 7.62957 113.871 7.62957H116.111C116.5 7.62957 116.778 7.81475 116.945 8.24068L120.686 18.3518L124.426 8.24068C124.593 7.83327 124.871 7.62957 125.26 7.62957H127.519C127.908 7.62957 128.186 7.81475 128.352 8.24068L132.149 18.3518L135.852 8.24068C136.019 7.83327 136.297 7.62957 136.686 7.62957H138.963C139.352 7.62957 139.63 7.81475 139.797 8.24068L145.056 22.0925ZM57.2967 7.64809H55.4263C55.0374 7.64809 54.7041 7.9629 54.7041 8.37031V9.62957C53.7596 8.20364 51.9078 7.18512 49.7226 7.18512C45.593 7.18512 42.0559 10.4444 42.0559 15.2036C42.0559 20.0185 45.6115 23.2592 49.7041 23.2592C51.9263 23.2592 53.7226 22.2407 54.7226 20.8148V22.1481C54.7226 22.537 55.0744 22.8518 55.4448 22.8518H57.3152C57.7041 22.8518 58.0189 22.537 58.0189 22.1481V8.37031C58.0004 7.9629 57.6856 7.64809 57.2967 7.64809ZM50.0744 20.2222C47.3522 20.2222 45.4078 17.9999 45.4078 15.2407C45.4078 12.4444 47.3337 10.2962 50.0744 10.2962C52.7781 10.2962 54.7411 12.4444 54.7411 15.2407C54.7226 18.0185 52.7596 20.2222 50.0744 20.2222ZM79.6115 20.7036C80.0189 21.2036 79.667 21.5925 79.4448 21.7592C78.1485 22.7407 76.4263 23.2777 74.5559 23.2777C69.8337 23.2777 66.6856 19.8148 66.6856 15.2592C66.6856 10.7036 69.8337 7.20364 74.5559 7.20364C76.4263 7.20364 78.13 7.74068 79.4448 8.72216C79.667 8.88883 79.9819 9.22216 79.6115 9.77772L78.7226 11.0185C78.3708 11.4999 77.9633 11.3703 77.6115 11.1481C76.7782 10.6481 75.7967 10.2222 74.667 10.2222C71.9078 10.2222 70.0744 12.4444 70.0744 15.2592C70.0744 18.074 71.9078 20.2777 74.667 20.2777C75.8152 20.2777 76.7226 19.8333 77.5559 19.3518C77.9078 19.1666 78.2782 18.9999 78.667 19.5185L79.6115 20.7036ZM88.4263 7.22216C83.9819 7.22216 80.4448 10.7036 80.4448 15.2407C80.4448 19.8148 84.0004 23.2592 88.4263 23.2592C92.8708 23.2592 96.4078 19.7962 96.4078 15.2407C96.4263 10.7222 92.8708 7.22216 88.4263 7.22216ZM88.4263 20.2036C85.7041 20.2036 83.7596 18.0185 83.7596 15.2592C83.7596 12.4629 85.6856 10.3148 88.4263 10.3148C91.1485 10.3148 93.093 12.4629 93.093 15.2592C93.093 18.0185 91.167 20.2036 88.4263 20.2036ZM63.8522 0.407346C64.2596 0.407346 64.5559 0.759198 64.5559 1.12957V22.1296C64.5559 22.5185 64.2782 22.8518 63.8522 22.8518H61.9819C61.593 22.8518 61.2596 22.4999 61.2596 22.1296V1.14809C61.2596 0.759198 61.6115 0.425865 61.9819 0.425865H63.8522" fill="#C4C4DA"/>
</g>
<defs>
<clipPath id="clip0_1926_5060">
<rect width="145.111" height="26.6667" fill="white"/>
</clipPath>
</defs>
</svg>
