<svg width="82" height="32" viewBox="0 0 82 32" fill="none" xmlns="http://www.w3.org/2000/svg">
<path fill-rule="evenodd" clip-rule="evenodd" d="M77.2736 23.8223C75.738 23.8223 74.9545 24.8357 74.8319 24.9893C74.4321 24.2528 73.7263 23.8223 72.7901 23.8223C71.4397 23.8223 70.6715 24.6058 70.5475 24.7437C70.4877 24.5288 70.2105 23.9608 69.335 23.9608C69.09 23.9608 68.7213 24.0378 68.6905 24.0378C68.7213 24.2063 68.8901 25.0046 68.8901 26.1098C68.8901 26.8009 68.8901 30.9615 68.8901 30.9615H70.6714V26.0178C70.7011 25.987 71.363 25.3114 72.1599 25.3114C72.9748 25.3114 73.3585 25.9103 73.3585 26.7239V30.9613H75.1388V26.0176C75.1853 25.9721 75.8298 25.3112 76.6434 25.3112C77.4569 25.3112 77.8251 25.9102 77.8251 26.7237V30.9611H79.6218V26.4475C79.622 24.8514 78.7164 23.8223 77.2736 23.8223ZM57.7908 29.6719C56.5778 29.6719 55.7188 28.7199 55.7188 27.4764C55.7188 26.0945 56.7006 25.266 57.7908 25.266C58.3741 25.266 58.6199 25.435 59.0044 25.435C59.4181 25.435 59.6484 25.2345 59.8482 24.8355C59.9708 24.6218 60.0331 24.4825 60.0331 24.4825C59.9402 24.4361 59.0505 23.8222 57.5148 23.8222C55.2728 23.8222 53.9378 25.4349 53.9378 27.4764C53.9378 29.718 55.4736 31.1143 57.5148 31.1143C59.0046 31.1143 59.8943 30.5162 60.0628 30.3935L59.4489 29.1809C59.3112 29.2726 58.6653 29.6719 57.7908 29.6719ZM38.2936 23.8223C36.5894 23.8223 35.1614 25.2044 35.1614 27.4766C35.1614 29.7952 36.559 31.1145 38.6317 31.1145C40.2893 31.1145 41.1486 30.3936 41.2564 30.3316C41.2564 30.3316 41.0877 30.071 41.042 29.9945C40.8112 29.61 40.5507 29.4879 40.2585 29.4879C39.675 29.4879 39.599 29.7331 38.8001 29.7331C37.434 29.7331 36.9578 28.6742 36.927 27.9684H41.4861C41.4861 27.7832 41.4861 27.538 41.4861 27.4307C41.4861 25.266 40.2437 23.8223 38.2936 23.8223ZM36.927 26.6929C36.927 25.8957 37.4795 25.1582 38.2778 25.1582C39.1528 25.1582 39.6291 25.9255 39.6441 26.6929H36.927ZM44.5263 28.9968V21.7196C44.5263 20.906 43.9886 20.2762 43.1291 20.2762C43.083 20.2762 42.7609 20.2762 42.7609 20.2762V29.7027C42.7609 30.578 43.2978 31.1143 44.2354 31.1143C45.3865 31.1143 45.7242 30.3011 45.7242 29.5187C45.6781 29.5489 45.4321 29.6418 45.1865 29.6418C44.7724 29.6418 44.5263 29.411 44.5263 28.9968ZM32.6434 28.7507V25.2971H34.1327L34.6547 23.9606H32.6434V21.8733C32.6434 21.8733 32.4903 21.8575 32.4748 21.8733C31.6912 21.8733 30.8625 22.1952 30.8625 23.9455V23.9608H29.5576V25.2973H30.8625V29.3653C30.8625 30.5164 31.5533 31.1147 32.5209 31.1147C33.3037 31.1147 34.3164 30.8853 34.3164 29.3349C34.2555 29.3655 33.8714 29.6102 33.4574 29.6102C32.8736 29.6098 32.6434 29.2576 32.6434 28.7507ZM49.4543 23.8223C47.75 23.8223 46.3067 25.2044 46.3067 27.4766C46.3067 29.7952 47.7041 31.1145 49.7933 31.1145C51.4352 31.1145 52.2945 30.3936 52.4021 30.3316C52.4021 30.3316 52.2484 30.071 52.2025 29.9945C51.9574 29.61 51.6964 29.4879 51.4048 29.4879C50.8211 29.4879 50.7444 29.7331 49.9461 29.7331C48.5947 29.7331 48.1187 28.6742 48.0881 27.9684H52.6482C52.6482 27.7832 52.6482 27.538 52.6482 27.4307C52.6484 25.266 51.3894 23.8223 49.4543 23.8223ZM48.0724 26.6929C48.0724 25.8957 48.6409 25.1582 49.4239 25.1582C50.2992 25.1582 50.79 25.9255 50.8048 26.6929H48.0724ZM64.131 31.1143C61.9512 31.1143 60.6463 29.6869 60.6463 27.4764C60.6463 25.2813 61.9359 23.8222 64.131 23.8222C66.326 23.8222 67.6169 25.2813 67.6169 27.4764C67.6169 29.5489 66.4341 31.1143 64.131 31.1143ZM64.131 29.7488C65.2209 29.7488 65.8515 28.8121 65.8515 27.4766C65.8515 26.1411 65.2357 25.1891 64.131 25.1891C63.0568 25.1891 62.4114 26.1253 62.4114 27.4766C62.4114 28.7808 63.0258 29.7488 64.131 29.7488Z" fill="#C4C4DA"/>
<path fill-rule="evenodd" clip-rule="evenodd" d="M6.88346 23.1925C5.80851 22.6862 4.91825 22.2878 4.91825 21.4589C4.91825 20.8288 5.42468 20.3839 6.42225 20.3839C6.77546 20.3839 7.08312 20.414 7.38972 20.4749C7.54346 20.5064 7.71129 20.537 7.86572 20.537C8.72555 20.537 9.21633 20.0151 9.53859 19.0325L9.67686 18.6332C9.53859 18.5718 8.12677 17.9584 6.28416 17.9584C3.35164 17.9584 1.80138 19.8307 1.80138 21.7965C1.80138 22.7785 2.10851 23.4848 2.58399 24.0525C3.21425 24.7735 4.08955 25.25 4.9179 25.649C6.13042 26.2481 7.21981 26.6777 7.21981 27.5525C7.21981 28.3359 6.42207 28.7808 5.34764 28.7808C3.85842 28.7808 2.5692 27.937 2.41564 27.8452L1.20294 30.1172C1.41772 30.2394 2.96851 31.2224 5.54712 31.2224C8.28033 31.2224 10.3527 29.6559 10.3527 27.2305C10.3527 24.8354 8.43425 23.9453 6.88346 23.1925ZM17.5842 24.314L22.5576 18.2191H19.0116L15.0511 23.4692H14.9887V18.2191H12.0723V31.1142H12.2562C13.5156 31.1142 15.0189 30.5312 15.0189 28.4278V25.4646H15.0661L19.1033 30.9613H22.8189L17.5842 24.314Z" fill="#C4C4DA"/>
<path fill-rule="evenodd" clip-rule="evenodd" d="M22.7093 4.40125C21.6811 4.60142 20.1608 5.53707 20.1769 7.1802C20.1769 8.66942 21.4053 9.59029 21.4053 11.5402C21.4053 13.0141 20.5912 14.012 19.7162 14.5652C20.0695 14.5346 20.4533 14.5192 20.883 14.5192C21.7891 14.5033 22.3255 14.5953 22.3568 14.5953L26.9622 8.94524C25.6882 7.02733 24.199 5.5529 22.7093 4.40125Z" fill="#C4C4DA"/>
<path fill-rule="evenodd" clip-rule="evenodd" d="M26.5809 19.6768C27.1641 18.7704 27.2406 17.3285 27.2874 15.8698C27.3488 14.5032 27.6248 13.4747 29.4517 13.4598C29.866 13.4598 30.2498 13.5206 30.9406 13.5206C33.6279 13.5067 35.3782 12.5845 36.4684 11.97C34.2418 10.5584 31.0025 9.11506 26.9644 8.9455C26.7039 9.68341 24.6616 15.3636 24.5084 15.8243C24.5389 15.8382 24.8926 16.238 25.3373 17.021C25.998 18.0956 26.3509 19.002 26.5809 19.6768Z" fill="#C4C4DA"/>
<path fill-rule="evenodd" clip-rule="evenodd" d="M16.8618 15.0406C16.6171 15.0406 16.5087 14.8877 16.4778 14.611C16.4478 14.3496 15.296 3.80321 15.1266 2.222C15.0962 1.97591 15.035 1.56165 15.035 1.40739C15.035 1.16269 15.2044 1.02478 15.3884 1.02478C15.9256 1.02478 18.9037 1.71487 22.0666 3.94113C21.1605 4.18635 19.5025 5.13869 19.5176 7.10408C19.5176 8.82374 20.7616 9.79052 20.7765 11.5258C20.7765 14.3496 17.5225 15.0406 16.8618 15.0406Z" fill="#C4C4DA"/>
<path fill-rule="evenodd" clip-rule="evenodd" d="M26.8545 20.43C26.9013 20.5521 26.9472 20.6604 26.994 20.7369C27.0701 20.859 27.1618 20.9208 27.2701 20.9208C27.3468 20.9208 27.4387 20.8902 27.5461 20.8446C27.7761 20.7369 37.4021 16.2535 38.8448 15.5945C39.0602 15.4863 39.4592 15.3173 39.5983 15.2402C39.7359 15.1632 39.7971 15.0406 39.7971 14.9342C39.7971 14.8566 39.7663 14.7954 39.7359 14.7335C39.5521 14.4418 38.6152 13.4602 37.0642 12.3848C35.8364 13.0599 33.9013 14.1048 31.0317 14.1192C30.3246 14.1192 30.1715 14.0742 29.6954 14.0742C28.2835 14.0886 27.9453 14.6875 27.8832 15.9154C27.8832 16.1467 27.8689 16.4531 27.8689 16.7912C27.8227 17.8959 27.6844 19.4159 26.8545 20.43Z" fill="#C4C4DA"/>
</svg>
