<svg width="176" height="36" viewBox="0 0 176 36" fill="none" xmlns="http://www.w3.org/2000/svg">
<g clip-path="url(#clip0_1926_5130)">
<path fill-rule="evenodd" clip-rule="evenodd" d="M35.557 8.88913L35.557 26.6669C35.557 31.5761 31.5773 35.5558 26.6681 35.5558L8.89034 35.5558C3.98114 35.5558 0.00144958 31.5761 0.00144958 26.6669L0.00144958 8.88913C0.00144958 3.97994 3.98114 0.000244141 8.89034 0.000244141L26.6681 0.000244141C31.5773 0.000244141 35.557 3.97994 35.557 8.88913Z" fill="#C4C4DA"/>
<path fill-rule="evenodd" clip-rule="evenodd" d="M23.8768 19.7796C21.8852 16.546 13.9572 15.0792 14.2463 11.3697C14.4714 8.46609 18.5295 8.74713 18.5295 8.74713C18.5295 8.74713 12.1502 8.06697 11.2621 12.6439C10.3506 17.3372 19.8322 19.1109 21.157 21.8803C23.2752 26.3104 16.4998 26.7368 16.4998 26.7368C23.803 27.0746 25.562 22.5156 23.8768 19.7796Z" fill="white"/>
<path opacity="0.5" fill-rule="evenodd" clip-rule="evenodd" d="M12.5602 20.0429C12.5245 20.7435 12.5159 21.38 12.5934 21.9712C12.6685 22.5611 12.8382 23.0814 13.1248 23.5261C13.27 23.7478 13.436 23.9607 13.6366 24.1565C13.8408 24.349 14.0609 24.541 14.3119 24.7145C14.4312 24.8097 14.569 24.8839 14.6969 24.977C14.831 25.0611 14.9688 25.1436 15.1078 25.2326C15.2492 25.3132 15.3931 25.399 15.5383 25.4889C15.6859 25.5705 15.8347 25.6616 15.9836 25.7625C15.7597 25.8009 15.5321 25.8199 15.3058 25.8199C14.8224 25.8199 14.3389 25.7336 13.8678 25.5637L13.6095 25.4633C13.5246 25.4244 13.4434 25.3792 13.3586 25.3369L13.2331 25.2714C13.1925 25.2476 13.1544 25.2198 13.1138 25.194C13.035 25.1402 12.9538 25.0902 12.8764 25.032C12.5713 24.798 12.2945 24.5072 12.0829 24.1717C11.8689 23.8377 11.7237 23.4604 11.6499 23.0798C11.5774 22.6983 11.5737 22.3139 11.629 21.9484C11.6856 21.5828 11.7951 21.2344 11.9489 20.9121C12.1063 20.5921 12.2994 20.2898 12.5602 20.0429ZM19.9531 9.55347C20.4353 9.55347 20.92 9.63969 21.3911 9.8097L21.6494 9.91015C21.7331 9.94882 21.8155 9.99406 21.8992 10.0366L22.0246 10.1018C22.0664 10.1258 22.1046 10.1535 22.1452 10.1794C22.2239 10.2331 22.3051 10.283 22.3814 10.3414C22.6876 10.5755 22.9632 10.8661 23.176 11.2016C23.39 11.5356 23.5352 11.9131 23.609 12.2935C23.6816 12.6751 23.684 13.0596 23.6287 13.4249C23.5721 13.7907 23.4638 14.139 23.3101 14.4613C23.1526 14.7811 22.9595 15.0836 22.6987 15.3303C22.7344 14.63 22.743 13.9933 22.6655 13.4023C22.5905 12.8123 22.4207 12.292 22.1341 11.8473C21.9889 11.6256 21.8229 11.4126 21.6224 11.2167C21.417 11.0243 21.198 10.8324 20.9458 10.659C20.8277 10.5638 20.69 10.4895 20.562 10.3963C20.4279 10.3124 20.2902 10.2297 20.1512 10.1407C20.0085 10.0602 19.8658 9.97436 19.7206 9.88437C19.5718 9.80289 19.4242 9.71193 19.2741 9.61075C19.4992 9.57244 19.7256 9.55347 19.9531 9.55347Z" fill="white"/>
<path fill-rule="evenodd" clip-rule="evenodd" d="M72.2246 15.3183C74.5738 15.3183 76.3754 17.4202 76.3754 19.9284C76.3754 22.4365 74.5738 24.5384 72.2246 24.5384C71.0775 24.5384 70.1808 23.9908 69.7406 23.4551L69.6635 23.355V28.0357H67.2436V15.5126H69.6635V16.5017C70.0697 15.9365 71.0059 15.3183 72.2246 15.3183ZM50.4462 11.5914C53.1486 11.5914 54.7559 13.5344 54.8442 15.4066H52.3008C52.0182 14.3469 51.188 13.9583 50.4462 13.9583C49.5453 13.9583 48.8388 14.3822 48.8212 15.124C48.8035 15.9012 49.3687 16.3251 50.3932 16.6254L51.8592 17.0316C53.8904 17.5968 55.1092 18.8862 55.1092 20.8292C55.1092 22.9664 53.3782 24.556 50.7464 24.556C47.7437 24.556 46.0304 22.5248 45.9244 20.4582H48.4856C48.6622 21.5887 49.6337 22.1892 50.7464 22.1892C51.7709 22.1892 52.5304 21.7123 52.5304 20.9175C52.5304 20.2463 52.0535 19.7341 50.8524 19.3985L49.5277 19.0099C47.5494 18.4447 46.26 17.2083 46.2424 15.3007C46.2247 12.9868 47.938 11.5914 50.4462 11.5914ZM170.007 15.3183C172.543 15.3183 174.641 17.0877 174.622 20.2643L174.617 20.4936H167.728C167.834 21.5357 168.611 22.4365 170.113 22.4365C170.904 22.4365 171.603 22.1134 171.923 21.582L171.985 21.465H174.511C173.981 23.249 172.232 24.5384 169.989 24.5384C167.287 24.5384 165.361 22.5955 165.361 19.9107C165.361 17.2789 167.322 15.3183 170.007 15.3183ZM133.992 15.3183C136.553 15.3183 138.637 17.3496 138.637 19.9284C138.637 22.5071 136.553 24.5384 133.992 24.5384C131.431 24.5384 129.347 22.5071 129.347 19.9284C129.347 17.3496 131.431 15.3183 133.992 15.3183ZM151.196 15.3183C152.343 15.3183 153.24 15.8659 153.665 16.4016L153.739 16.5017V15.5126H156.159V24.3441H153.739V23.355C153.351 23.9202 152.414 24.5384 151.196 24.5384C148.847 24.5384 147.045 22.4365 147.045 19.9284C147.045 17.4202 148.847 15.3183 151.196 15.3183ZM82.2218 15.3183C84.7579 15.3183 86.8559 17.0877 86.8369 20.2643L86.8319 20.4936H79.9433C80.0493 21.5357 80.8265 22.4365 82.3278 22.4365C83.1191 22.4365 83.8181 22.1134 84.1376 21.582L84.2001 21.465H86.7259C86.196 23.249 84.4474 24.5384 82.2042 24.5384C79.5017 24.5384 77.5765 22.5955 77.5765 19.9107C77.5765 17.2789 79.5371 15.3183 82.2218 15.3183ZM59.1717 15.5126V20.2286C59.1717 21.5533 59.6309 22.3305 60.673 22.3305C61.7505 22.3305 62.4923 21.5357 62.4923 19.8224V15.5126H64.9121V24.3441H62.4923V23.3373C62.0331 24.0438 61.2029 24.5384 60.0725 24.5384C57.9353 24.5384 56.7518 22.984 56.7518 20.6349V15.5126H59.1717ZM143.512 13.0575V15.5126H146.003V17.6322H143.512V20.7762C143.512 21.8536 143.972 22.2775 145.014 22.2775C145.402 22.2775 145.72 22.2245 146.003 22.1186V24.2558C145.614 24.3794 145.137 24.4501 144.466 24.4501C142.594 24.4501 141.093 23.408 141.093 21.2531V17.6322H139.309V15.5126H141.093V13.0575H143.512ZM161.829 13.0575V15.5126H164.319V17.6322H161.829V20.7762C161.829 21.8536 162.288 22.2775 163.33 22.2775C163.719 22.2775 164.037 22.2245 164.319 22.1186V24.2558C163.931 24.3794 163.454 24.4501 162.783 24.4501C160.91 24.4501 159.409 23.408 159.409 21.2531V17.6322H157.625V15.5126H159.409V13.0575H161.829ZM124.295 15.3183C126.432 15.3183 127.704 16.8727 127.704 19.1688V24.3441H125.284V19.5751C125.284 18.3034 124.737 17.5262 123.73 17.5262C122.617 17.5262 121.769 18.3387 121.769 20.0343V24.3441H119.349V15.5126H121.769V16.5194C122.228 15.8129 123.147 15.3183 124.295 15.3183ZM113.715 15.3183C115.852 15.3183 117.124 16.8727 117.124 19.1688V24.3441H114.704V19.5751C114.704 18.3034 114.156 17.5262 113.15 17.5262C112.037 17.5262 111.189 18.3387 111.189 20.0343V24.3441H108.769V15.5126H111.189V16.5194C111.648 15.8129 112.567 15.3183 113.715 15.3183ZM93.2082 15.4066C93.4555 15.4066 93.7204 15.4243 94.0207 15.5126V17.9678C93.6498 17.8441 93.3142 17.7735 92.9256 17.7735C91.7775 17.7735 91.018 18.6743 91.018 20.1226V24.3441H88.5982V15.5126H91.018V16.9256C91.3183 16.0602 92.2191 15.4066 93.2082 15.4066ZM102.181 11.8034L107.604 24.3441H104.919L103.7 21.4827H98.3658L97.147 24.3441H94.4976L99.9025 11.8034H102.181ZM151.708 17.5262C150.383 17.5262 149.482 18.5506 149.482 19.9284C149.482 21.3061 150.383 22.3305 151.708 22.3305C153.033 22.3305 153.933 21.3061 153.933 19.9284C153.933 18.5506 153.033 17.5262 151.708 17.5262ZM71.6947 17.5262C70.37 17.5262 69.4692 18.5506 69.4692 19.9284C69.4692 21.3061 70.37 22.3305 71.6947 22.3305C73.0194 22.3305 73.9202 21.3061 73.9202 19.9284C73.9202 18.5506 73.0194 17.5262 71.6947 17.5262ZM133.992 17.5792C132.72 17.5792 131.784 18.5683 131.784 19.9284C131.784 21.2884 132.72 22.2775 133.992 22.2775C135.264 22.2775 136.182 21.2884 136.182 19.9284C136.182 18.5683 135.264 17.5792 133.992 17.5792ZM101.033 15.1593L99.3019 19.2395H102.764L101.033 15.1593ZM82.1512 17.2789C81.097 17.2789 80.344 17.8655 80.0724 18.7532L80.0316 18.9039H84.1824C83.8822 17.7205 82.9813 17.2789 82.1512 17.2789ZM169.936 17.2789C168.882 17.2789 168.129 17.8655 167.857 18.7532L167.817 18.9039H171.967C171.667 17.7205 170.766 17.2789 169.936 17.2789Z" fill="#C4C4DA"/>
</g>
<defs>
<clipPath id="clip0_1926_5130">
<rect width="175.111" height="35.5556" fill="white"/>
</clipPath>
</defs>
</svg>
