<svg width="158" height="24" viewBox="0 0 158 24" fill="none" xmlns="http://www.w3.org/2000/svg">
<g clip-path="url(#clip0_1926_5071)">
<path d="M150.715 23.584H157.518L150.499 0.417415L140.831 0.417021L133.812 23.5836H140.617L141.857 19.2952H149.469L150.715 23.5836M143.33 14.1439L145.645 6.13994H145.685L148 14.1439H143.33ZM33.963 23.9994C40.9488 23.9994 44.3255 22.7688 44.804 16.4653C44.9181 14.9653 44.9398 13.4254 44.9398 11.9979C44.9418 10.5754 44.9181 9.03389 44.804 7.53415C44.3255 1.22862 40.9488 0 33.963 0C26.9772 0 23.6024 1.22862 23.1259 7.53415C23.0098 9.03389 22.9861 10.5754 22.9861 11.9979C22.9881 13.4254 23.0098 14.9653 23.1259 16.4653C23.6024 22.7688 26.9772 23.9994 33.963 23.9994ZM29.5703 11.9979C29.5703 10.7258 29.6018 9.97386 29.6293 9.41586C29.8065 5.84007 31.2183 5.42325 33.963 5.42325C36.7096 5.42325 38.1214 5.84007 38.2966 9.41586C38.3242 9.97367 38.3576 10.7256 38.3576 11.9979C38.3576 13.2742 38.3242 14.0275 38.2966 14.5841C38.1214 18.1605 36.7096 18.5781 33.963 18.5781C31.2183 18.5781 29.8065 18.1605 29.6293 14.5841C29.6018 14.0275 29.5703 13.2742 29.5703 11.9979ZM0.00268555 0.427654V6.20275H6.92784V23.5938H13.8556V6.20275H20.7809V0.427654H0.00268555ZM106.296 23.584V0.417021H99.7216V23.584H106.296ZM79.8432 8.87539V0.417021H73.3063V23.584H79.8432V14.6505H87.4394V23.584H93.9743V0.417021H87.4394V8.87539H79.8432ZM127.919 11.4756C130.831 10.7311 131.685 8.99156 131.685 6.47722C131.685 1.38574 128.482 0.416825 123.928 0.416825H112.124V23.5834H124.513C130.217 23.5834 132.134 21.1261 132.134 17.3468C132.134 14.7117 131.532 12.3868 127.919 11.475M118.659 14.0679H123.191C125.023 14.0679 125.404 14.87 125.404 16.1746C125.404 17.4804 124.688 18.2848 123.191 18.2848H118.659V14.0679ZM118.659 5.71465H123.191C124.375 5.71465 125.107 6.276 125.107 7.6261C125.107 8.78344 124.383 9.4958 123.191 9.4958H118.659V5.71465ZM48.7497 15.9813H54.9814C54.9873 17.1052 55.131 17.8563 55.6764 18.2712C56.2967 18.7386 56.8519 18.893 58.6929 18.893C60.4649 18.893 62.4063 18.893 62.4063 16.7104C62.4063 14.9891 61.3214 14.5963 59.319 14.4896C54.3533 14.2266 52.5576 14.0862 50.7088 12.7127C49.4487 11.776 48.795 9.9526 48.795 7.4867C48.795 3.29345 50.2579 1.82245 52.3686 0.796042C54.5463 -0.263444 63.0934 -0.263444 65.3932 0.796042C68.2855 2.12862 68.3702 5.01351 68.3702 7.6895H62.1543C62.1424 6.32522 61.8353 5.9399 61.5852 5.6861C60.9394 5.11353 60.0199 4.99264 58.6929 4.99264C57.0862 4.99264 55.2275 5.0651 55.2275 7.01612C55.2275 8.50464 55.8714 9.12682 57.5607 9.2363C59.8821 9.38476 64.4559 9.53105 66.0862 10.4931C68.3722 11.8451 68.9648 13.6747 68.9648 16.6596C68.9648 20.9731 67.4212 22.2392 65.2731 23.1882C62.7942 24.2829 54.5148 24.2829 51.8232 23.1035C48.8107 21.7903 48.7497 19.1727 48.7497 15.9813Z" fill="#C4C4DA"/>
</g>
<defs>
<clipPath id="clip0_1926_5071">
<rect width="157.519" height="24" fill="white"/>
</clipPath>
</defs>
</svg>
