<svg width="20" height="20" viewBox="0 0 20 20" fill="none" xmlns="http://www.w3.org/2000/svg">
<path d="M15.25 7H16.75C16.9489 7 17.1397 7.07902 17.2803 7.21967C17.421 7.36032 17.5 7.55109 17.5 7.75V16.75C17.5 16.9489 17.421 17.1397 17.2803 17.2803C17.1397 17.421 16.9489 17.5 16.75 17.5H10.75C10.5511 17.5 10.3603 17.421 10.2197 17.2803C10.079 17.1397 10 16.9489 10 16.75V16H4C3.80109 16 3.61032 15.921 3.46967 15.7803C3.32902 15.6397 3.25 15.4489 3.25 15.25V3.25C3.25 3.05109 3.32902 2.86032 3.46967 2.71967C3.61032 2.57902 3.80109 2.5 4 2.5H14.5C14.6989 2.5 14.8897 2.57902 15.0303 2.71967C15.171 2.86032 15.25 3.05109 15.25 3.25V7ZM13.75 7V4H4.75V14.5H10V7.75C10 7.55109 10.079 7.36032 10.2197 7.21967C10.3603 7.07902 10.5511 7 10.75 7H13.75ZM11.5 8.5V16H16V8.5H11.5Z" fill="#868C98"/>
</svg>
