<svg width="40" height="40" viewBox="0 0 40 40" fill="none" xmlns="http://www.w3.org/2000/svg">
<path d="M21.4292 1.42863C31.6858 1.42879 40.0005 9.74333 40.0005 19.9999C40.0005 30.2565 31.6858 38.571 21.4292 38.5712C14.1317 38.5712 7.81791 34.362 4.78174 28.2392C5.53208 28.4539 6.32378 28.5712 7.14307 28.5712C9.26997 28.5712 11.2141 27.7942 12.7124 26.5116C14.6966 29.1634 17.8625 30.8798 21.4292 30.8798C27.4378 30.8796 32.3091 26.0085 32.3091 19.9999C32.309 13.9913 27.4378 9.1202 21.4292 9.12004C17.8628 9.12004 14.6966 10.8359 12.7124 13.4872C11.2142 12.2049 9.26971 11.4286 7.14307 11.4286C6.32379 11.4287 5.53207 11.546 4.78174 11.7607C7.81793 5.63793 14.1317 1.42863 21.4292 1.42863Z" fill="#3C3C54"/>
<circle cx="7.143" cy="20" r="5.71429" fill="#3C3C54"/>
</svg>
